<?xml version="1.0" encoding="UTF-8" standalone="no"?>
<!-- Created with Inkscape (http://www.inkscape.org/) -->

<svg
   xmlns:dc="http://purl.org/dc/elements/1.1/"
   xmlns:cc="http://creativecommons.org/ns#"
   xmlns:rdf="http://www.w3.org/1999/02/22-rdf-syntax-ns#"
   xmlns:svg="http://www.w3.org/2000/svg"
   xmlns="http://www.w3.org/2000/svg"
   xmlns:xlink="http://www.w3.org/1999/xlink"
   xmlns:sodipodi="http://sodipodi.sourceforge.net/DTD/sodipodi-0.dtd"
   xmlns:inkscape="http://www.inkscape.org/namespaces/inkscape"
   width="1440.36"
   height="1819.09"
   id="svg2"
   version="1.1"
   inkscape:version="0.48.3.1 r9886"
   sodipodi:docname="base.svg">
  <defs
     id="defs4">
    <linearGradient
       id="linearGradient4428">
      <stop
         style="stop-color:#d66b6b;stop-opacity:1;"
         offset="0"
         id="stop4430" />
      <stop
         id="stop4438"
         offset="0.13870008"
         style="stop-color:#da7979;stop-opacity:1;" />
      <stop
         id="stop4436"
         offset="0.5"
         style="stop-color:#de8787;stop-opacity:1;" />
      <stop
         style="stop-color:#da7979;stop-opacity:1;"
         offset="0.88249987"
         id="stop4440" />
      <stop
         style="stop-color:#d66b6b;stop-opacity:1;"
         offset="1"
         id="stop4432" />
    </linearGradient>
    <filter
       inkscape:collect="always"
       id="filter4608"
       x="-0.074788496"
       width="1.149577"
       y="-0.30343243"
       height="1.6068648"
       color-interpolation-filters="sRGB">
      <feGaussianBlur
         inkscape:collect="always"
         stdDeviation="9.4467048"
         id="feGaussianBlur4610" />
    </filter>
    <linearGradient
       inkscape:collect="always"
       xlink:href="#linearGradient4428"
       id="linearGradient5490"
       gradientUnits="userSpaceOnUse"
       x1="436.54895"
       y1="839.51862"
       x2="453.20212"
       y2="839.51862" />
  </defs>
  <sodipodi:namedview
     id="base"
     pagecolor="#ffffff"
     bordercolor="#666666"
     borderopacity="1.0"
     inkscape:pageopacity="0.0"
     inkscape:pageshadow="2"
     inkscape:zoom="0.35"
     inkscape:cx="431.40409"
     inkscape:cy="648.22909"
     inkscape:document-units="px"
     inkscape:current-layer="layer1"
     showgrid="false"
     inkscape:window-width="1366"
     inkscape:window-height="746"
     inkscape:window-x="0"
     inkscape:window-y="0"
     inkscape:window-maximized="1"
     height="744.09px" />
  <metadata
     id="metadata7">
    <rdf:RDF>
      <cc:Work
         rdf:about="">
        <dc:format>image/svg+xml</dc:format>
        <dc:type
           rdf:resource="http://purl.org/dc/dcmitype/StillImage" />
      </cc:Work>
    </rdf:RDF>
  </metadata>
  <g
     inkscape:label="Capa 1"
     inkscape:groupmode="layer"
     id="layer1"
     transform="translate(0,766.71385)">
    <text
       xml:space="preserve"
       style="font-size:20px;font-style:italic;font-variant:normal;font-weight:bold;font-stretch:normal;line-height:125%;letter-spacing:0px;word-spacing:0px;fill:#000000;fill-opacity:1;stroke:none;font-family:Magneto;-inkscape-font-specification:Magneto Bold Italic"
       x="681.42859"
       y="820.23291"
       id="text4947"
       sodipodi:linespacing="125%"
       transform="translate(0,244.28576)"><tspan
         sodipodi:role="line"
         id="tspan4949"
         x="681.42859"
         y="820.23291" /></text>
    <g
       id="g5325"
       transform="translate(0,-997.14285)">
      <g
         id="g3523">
        <rect
           style="fill:#66b0e9;fill-opacity:1;stroke:none"
           id="rect3017"
           width="150"
           height="210"
           x="444.33459"
           y="392.88147" />
        <rect
           y="-235.81818"
           x="305.88147"
           height="210"
           width="297"
           id="rect3019"
           style="fill:#66b0e9;fill-opacity:1;stroke:none"
           transform="matrix(0,1,-1,0,0,0)" />
        <rect
           transform="matrix(0,1,-1,0,0,0)"
           style="fill:#66b0e9;fill-opacity:1;stroke:none"
           id="rect3021"
           width="235"
           height="170"
           x="367.88147"
           y="-425.06976" />
        <rect
           y="412.88147"
           x="613.60809"
           height="190"
           width="190"
           id="rect3023"
           style="fill:#66b0e9;fill-opacity:1;stroke:none" />
        <rect
           style="fill:#66b0e9;fill-opacity:1;stroke:none"
           id="rect3025"
           width="229"
           height="178"
           x="822.90039"
           y="424.88147" />
        <rect
           y="427.88147"
           x="1071.2131"
           height="175"
           width="108"
           id="rect3027"
           style="fill:#66b0e9;fill-opacity:1;stroke:none" />
        <rect
           style="fill:#66b0e9;fill-opacity:1;stroke:none"
           id="rect3029"
           width="216"
           height="279"
           x="1198.5419"
           y="323.88147" />
        <text
           xml:space="preserve"
           style="font-size:56px;font-style:normal;font-variant:normal;font-weight:bold;font-stretch:normal;line-height:125%;letter-spacing:0px;word-spacing:0px;fill:#000000;fill-opacity:1;stroke:none;font-family:Arial;-inkscape-font-specification:Arial Bold"
           x="545.17999"
           y="305.22525"
           id="text3040"
           sodipodi:linespacing="125%"><tspan
             sodipodi:role="line"
             id="tspan3042"
             x="545.17999"
             y="305.22525">Dimensiones</tspan></text>
        <g
           id="g3441"
           transform="translate(-181.22029,-372.66033)">
          <path
             d="m 243.68886,833.12579 0,5.09765 -19.23828,0 c 0.20833,-1.92708 0.83333,-3.74999 1.875,-5.46875 1.04166,-1.73176 3.09895,-4.02342 6.17188,-6.875 2.47394,-2.30467 3.99087,-3.86717 4.55078,-4.6875 0.75519,-1.13279 1.13279,-2.25258 1.13281,-3.35937 -2e-5,-1.22394 -0.33205,-2.16144 -0.99609,-2.8125 -0.65106,-0.66404 -1.55601,-0.99607 -2.71485,-0.9961 -1.14584,3e-5 -2.0573,0.34508 -2.73437,1.03516 -0.67709,0.69013 -1.06772,1.83596 -1.17188,3.4375 l -5.46875,-0.54687 c 0.32552,-3.02081 1.34766,-5.18878 3.06641,-6.50391 1.71874,-1.31508 3.86718,-1.97263 6.44531,-1.97266 2.82551,3e-5 5.04556,0.76175 6.66016,2.28516 1.61456,1.52346 2.42185,3.41799 2.42187,5.68359 -2e-5,1.28909 -0.23439,2.51955 -0.70312,3.69141 -0.45575,1.15887 -1.18492,2.37632 -2.1875,3.65234 -0.66408,0.84637 -1.862,2.06382 -3.59375,3.65235 -1.73179,1.58855 -2.83205,2.64323 -3.30078,3.16406 -0.45574,0.52084 -0.82684,1.02865 -1.11329,1.52344 l 10.89844,0"
             style="font-size:40px;font-style:normal;font-variant:normal;font-weight:bold;font-stretch:normal;line-height:125%;letter-spacing:0px;word-spacing:0px;fill:#000000;fill-opacity:1;stroke:none;font-family:Arial;-inkscape-font-specification:Arial Bold"
             id="path3089"
             inkscape:connector-curvature="0" />
          <path
             d="m 261.4623,838.22344 -5.48828,0 0,-20.68359 c -2.00522,1.87502 -4.3685,3.26174 -7.08985,4.16016 l 0,-4.98047 c 1.43229,-0.46873 2.98828,-1.35415 4.66797,-2.65625 1.67968,-1.31508 2.83202,-2.84503 3.45703,-4.58985 l 4.45313,0 0,28.75"
             style="font-size:40px;font-style:normal;font-variant:normal;font-weight:bold;font-stretch:normal;line-height:125%;letter-spacing:0px;word-spacing:0px;fill:#000000;fill-opacity:1;stroke:none;font-family:Arial;-inkscape-font-specification:Arial Bold"
             id="path3091"
             inkscape:connector-curvature="0" />
          <path
             d="m 279.31386,838.22344 7.48047,-10.68359 -7.16797,-10.05859 6.69922,0 3.67188,5.70312 3.86718,-5.70312 6.44532,0 -7.03125,9.82421 7.67578,10.91797 -6.73828,0 -4.21875,-6.42578 -4.25782,6.42578 -6.42578,0"
             style="font-size:40px;font-style:normal;font-variant:normal;font-weight:bold;font-stretch:normal;line-height:125%;letter-spacing:0px;word-spacing:0px;fill:#000000;fill-opacity:1;stroke:none;font-family:Arial;-inkscape-font-specification:Arial Bold"
             id="path3093"
             inkscape:connector-curvature="0" />
          <path
             d="m 332.67324,833.12579 0,5.09765 -19.23828,0 c 0.20833,-1.92708 0.83333,-3.74999 1.875,-5.46875 1.04166,-1.73176 3.09895,-4.02342 6.17187,-6.875 2.47395,-2.30467 3.99087,-3.86717 4.55078,-4.6875 0.7552,-1.13279 1.1328,-2.25258 1.13281,-3.35937 -10e-6,-1.22394 -0.33204,-2.16144 -0.99609,-2.8125 -0.65105,-0.66404 -1.556,-0.99607 -2.71484,-0.9961 -1.14585,3e-5 -2.0573,0.34508 -2.73438,1.03516 -0.67709,0.69013 -1.06771,1.83596 -1.17187,3.4375 l -5.46875,-0.54687 c 0.32552,-3.02081 1.34765,-5.18878 3.0664,-6.50391 1.71875,-1.31508 3.86718,-1.97263 6.44532,-1.97266 2.8255,3e-5 5.04555,0.76175 6.66015,2.28516 1.61457,1.52346 2.42186,3.41799 2.42188,5.68359 -2e-5,1.28909 -0.2344,2.51955 -0.70313,3.69141 -0.45575,1.15887 -1.18491,2.37632 -2.1875,3.65234 -0.66408,0.84637 -1.86199,2.06382 -3.59375,3.65235 -1.73178,1.58855 -2.83204,2.64323 -3.30078,3.16406 -0.45574,0.52084 -0.82683,1.02865 -1.11328,1.52344 l 10.89844,0"
             style="font-size:40px;font-style:normal;font-variant:normal;font-weight:bold;font-stretch:normal;line-height:125%;letter-spacing:0px;word-spacing:0px;fill:#000000;fill-opacity:1;stroke:none;font-family:Arial;-inkscape-font-specification:Arial Bold"
             id="path3095"
             inkscape:connector-curvature="0" />
          <path
             d="m 336.52089,831.60235 5.3125,-0.58594 c 0.1302,1.08074 0.46875,1.88152 1.01563,2.40235 0.54686,0.52083 1.26952,0.78125 2.16797,0.78125 1.1328,0 2.09634,-0.52083 2.89062,-1.5625 0.79426,-1.04166 1.30207,-3.20312 1.52344,-6.48438 -1.38022,1.60157 -3.10548,2.40235 -5.17578,2.40234 -2.25261,10e-6 -4.19923,-0.86587 -5.83985,-2.59765 -1.6276,-1.74478 -2.4414,-4.0104 -2.4414,-6.79688 0,-2.90362 0.85937,-5.24086 2.57812,-7.01172 1.73177,-1.78382 3.93229,-2.67575 6.60157,-2.67578 2.90363,3e-5 5.28644,1.12633 7.14843,3.37891 1.86196,2.23961 2.79295,5.93101 2.79297,11.07422 -2e-5,5.23438 -0.97007,9.01042 -2.91015,11.32812 -1.94012,2.31771 -4.46616,3.47657 -7.57813,3.47657 -2.23959,0 -4.04948,-0.59245 -5.42969,-1.77735 -1.38021,-1.19791 -2.26562,-2.98176 -2.65625,-5.35156 m 12.42188,-11.99219 c -2e-5,-1.77081 -0.41017,-3.14451 -1.23047,-4.12109 -0.8073,-0.97654 -1.7448,-1.46482 -2.8125,-1.46485 -1.01563,3e-5 -1.86199,0.40367 -2.53906,1.21094 -0.66407,0.79429 -0.9961,2.10289 -0.9961,3.92578 0,1.84898 0.36458,3.20965 1.09375,4.08203 0.72916,0.85939 1.64062,1.28908 2.73438,1.28907 1.05467,10e-6 1.94009,-0.41666 2.65625,-1.25 0.72915,-0.83332 1.09373,-2.05728 1.09375,-3.67188"
             style="font-size:40px;font-style:normal;font-variant:normal;font-weight:bold;font-stretch:normal;line-height:125%;letter-spacing:0px;word-spacing:0px;fill:#000000;fill-opacity:1;stroke:none;font-family:Arial;-inkscape-font-specification:Arial Bold"
             id="path3097"
             inkscape:connector-curvature="0" />
          <path
             d="m 359.70449,832.73516 5.48828,0 0,3.92578 c -10e-6,1.58854 -0.13673,2.83854 -0.41016,3.75 -0.27344,0.92448 -0.79428,1.7513 -1.5625,2.48047 -0.75521,0.72916 -1.71875,1.30208 -2.89062,1.71875 l -1.07422,-2.26562 c 1.10677,-0.36459 1.89453,-0.86589 2.36328,-1.50391 0.46874,-0.63802 0.71614,-1.51042 0.74219,-2.61719 l -2.65625,0 0,-5.48828"
             style="font-size:40px;font-style:normal;font-variant:normal;font-weight:bold;font-stretch:normal;line-height:125%;letter-spacing:0px;word-spacing:0px;fill:#000000;fill-opacity:1;stroke:none;font-family:Arial;-inkscape-font-specification:Arial Bold"
             id="path3099"
             inkscape:connector-curvature="0" />
          <path
             d="m 380.85683,815.07891 0,-5.09765 18.76953,0 0,3.98437 c -1.5495,1.52346 -3.12502,3.71096 -4.72656,6.5625 -1.60158,2.85158 -2.82553,5.88543 -3.67188,9.10156 -0.83334,3.20313 -1.2435,6.06771 -1.23046,8.59375 l -5.29297,0 c 0.0911,-3.95833 0.90494,-7.99478 2.4414,-12.10937 1.54947,-4.11457 3.61327,-7.79295 6.19141,-11.03516 l -12.48047,0"
             style="font-size:40px;font-style:normal;font-variant:normal;font-weight:bold;font-stretch:normal;line-height:125%;letter-spacing:0px;word-spacing:0px;fill:#000000;fill-opacity:1;stroke:none;font-family:Arial;-inkscape-font-specification:Arial Bold"
             id="path3101"
             inkscape:connector-curvature="0" />
        </g>
        <g
           id="g3450"
           transform="translate(32.210978,-391.66033)">
          <path
             d="m 239.19667,888.22344 -5.48828,0 0,-20.68359 c -2.00521,1.87502 -4.36849,3.26174 -7.08984,4.16016 l 0,-4.98047 c 1.43229,-0.46873 2.98827,-1.35415 4.66797,-2.65625 1.67968,-1.31508 2.83202,-2.84503 3.45703,-4.58985 l 4.45312,0 0,28.75"
             style="font-size:40px;font-style:normal;font-variant:normal;font-weight:bold;font-stretch:normal;line-height:125%;letter-spacing:0px;word-spacing:0px;fill:#000000;fill-opacity:1;stroke:none;font-family:Arial;-inkscape-font-specification:Arial Bold"
             id="path3117"
             inkscape:connector-curvature="0" />
          <path
             d="m 247.41933,865.07891 0,-5.09765 18.76953,0 0,3.98437 c -1.5495,1.52346 -3.12502,3.71096 -4.72656,6.5625 -1.60158,2.85158 -2.82553,5.88543 -3.67188,9.10156 -0.83334,3.20313 -1.2435,6.06771 -1.23046,8.59375 l -5.29297,0 c 0.0911,-3.95833 0.90494,-7.99478 2.4414,-12.10937 1.54947,-4.11457 3.61327,-7.79295 6.19141,-11.03516 l -12.48047,0"
             style="font-size:40px;font-style:normal;font-variant:normal;font-weight:bold;font-stretch:normal;line-height:125%;letter-spacing:0px;word-spacing:0px;fill:#000000;fill-opacity:1;stroke:none;font-family:Arial;-inkscape-font-specification:Arial Bold"
             id="path3119"
             inkscape:connector-curvature="0" />
          <path
             d="m 279.31386,888.22344 7.48047,-10.68359 -7.16797,-10.05859 6.69922,0 3.67188,5.70312 3.86718,-5.70312 6.44532,0 -7.03125,9.82421 7.67578,10.91797 -6.73828,0 -4.21875,-6.42578 -4.25782,6.42578 -6.42578,0"
             style="font-size:40px;font-style:normal;font-variant:normal;font-weight:bold;font-stretch:normal;line-height:125%;letter-spacing:0px;word-spacing:0px;fill:#000000;fill-opacity:1;stroke:none;font-family:Arial;-inkscape-font-specification:Arial Bold"
             id="path3121"
             inkscape:connector-curvature="0" />
          <path
             d="m 332.67324,883.12579 0,5.09765 -19.23828,0 c 0.20833,-1.92708 0.83333,-3.74999 1.875,-5.46875 1.04166,-1.73176 3.09895,-4.02342 6.17187,-6.875 2.47395,-2.30467 3.99087,-3.86717 4.55078,-4.6875 0.7552,-1.13279 1.1328,-2.25258 1.13281,-3.35937 -10e-6,-1.22394 -0.33204,-2.16144 -0.99609,-2.8125 -0.65105,-0.66404 -1.556,-0.99607 -2.71484,-0.9961 -1.14585,3e-5 -2.0573,0.34508 -2.73438,1.03516 -0.67709,0.69013 -1.06771,1.83596 -1.17187,3.4375 l -5.46875,-0.54687 c 0.32552,-3.02081 1.34765,-5.18878 3.0664,-6.50391 1.71875,-1.31508 3.86718,-1.97263 6.44532,-1.97266 2.8255,3e-5 5.04555,0.76175 6.66015,2.28516 1.61457,1.52346 2.42186,3.41799 2.42188,5.68359 -2e-5,1.28909 -0.2344,2.51955 -0.70313,3.69141 -0.45575,1.15887 -1.18491,2.37632 -2.1875,3.65234 -0.66408,0.84637 -1.86199,2.06382 -3.59375,3.65235 -1.73178,1.58855 -2.83204,2.64323 -3.30078,3.16406 -0.45574,0.52084 -0.82683,1.02865 -1.11328,1.52344 l 10.89844,0"
             style="font-size:40px;font-style:normal;font-variant:normal;font-weight:bold;font-stretch:normal;line-height:125%;letter-spacing:0px;word-spacing:0px;fill:#000000;fill-opacity:1;stroke:none;font-family:Arial;-inkscape-font-specification:Arial Bold"
             id="path3123"
             inkscape:connector-curvature="0" />
          <path
             d="m 336.20839,880.62579 5.3125,-0.64453 c 0.16927,1.35417 0.625,2.38932 1.36719,3.10546 0.74218,0.71615 1.64062,1.07423 2.69531,1.07422 1.1328,10e-6 2.08332,-0.42968 2.85157,-1.28906 0.78123,-0.85937 1.17186,-2.01822 1.17187,-3.47656 -10e-6,-1.3802 -0.37111,-2.47395 -1.11328,-3.28125 -0.7422,-0.80728 -1.64715,-1.21093 -2.71484,-1.21094 -0.70314,10e-6 -1.54298,0.13673 -2.51954,0.41016 l 0.60547,-4.47266 c 1.48437,0.0391 2.61718,-0.27993 3.39844,-0.95703 0.78124,-0.69009 1.17186,-1.60154 1.17188,-2.73438 -2e-5,-0.96352 -0.28648,-1.73174 -0.85938,-2.30468 -0.57293,-0.5729 -1.33465,-0.85935 -2.28516,-0.85938 -0.93751,3e-5 -1.73829,0.32555 -2.40234,0.97656 -0.66407,0.65107 -1.06771,1.60159 -1.21094,2.85157 l -5.05859,-0.85938 c 0.35156,-1.73175 0.8789,-3.11195 1.58203,-4.14062 0.71614,-1.04164 1.70572,-1.85544 2.96875,-2.44141 1.27603,-0.59893 2.70181,-0.89841 4.27734,-0.89844 2.6953,3e-5 4.85676,0.85941 6.48438,2.57813 1.34113,1.40627 2.0117,2.99481 2.01172,4.76562 -2e-5,2.51304 -1.37372,4.51825 -4.1211,6.01563 1.64061,0.35158 2.94921,1.13934 3.92579,2.36328 0.98956,1.22397 1.48435,2.70183 1.48437,4.43359 -2e-5,2.51303 -0.91799,4.65495 -2.75391,6.42578 -1.83595,1.77084 -4.1211,2.65625 -6.85546,2.65625 -2.59116,0 -4.73959,-0.74218 -6.44532,-2.22656 -1.70573,-1.49739 -2.69531,-3.45051 -2.96875,-5.85937"
             style="font-size:40px;font-style:normal;font-variant:normal;font-weight:bold;font-stretch:normal;line-height:125%;letter-spacing:0px;word-spacing:0px;fill:#000000;fill-opacity:1;stroke:none;font-family:Arial;-inkscape-font-specification:Arial Bold"
             id="path3125"
             inkscape:connector-curvature="0" />
          <path
             d="m 359.70449,882.73516 5.48828,0 0,3.92578 c -10e-6,1.58854 -0.13673,2.83854 -0.41016,3.75 -0.27344,0.92448 -0.79428,1.7513 -1.5625,2.48047 -0.75521,0.72916 -1.71875,1.30208 -2.89062,1.71875 l -1.07422,-2.26562 c 1.10677,-0.36459 1.89453,-0.86589 2.36328,-1.50391 0.46874,-0.63802 0.71614,-1.51042 0.74219,-2.61719 l -2.65625,0 0,-5.48828"
             style="font-size:40px;font-style:normal;font-variant:normal;font-weight:bold;font-stretch:normal;line-height:125%;letter-spacing:0px;word-spacing:0px;fill:#000000;fill-opacity:1;stroke:none;font-family:Arial;-inkscape-font-specification:Arial Bold"
             id="path3127"
             inkscape:connector-curvature="0" />
          <path
             d="m 369.84121,880.86016 5.46875,-0.5664 c 0.15624,1.23698 0.61848,2.22005 1.38671,2.94921 0.76822,0.71615 1.65364,1.07423 2.65625,1.07422 1.14583,10e-6 2.11588,-0.46223 2.91016,-1.38672 0.79426,-0.93749 1.19139,-2.34374 1.19141,-4.21875 -2e-5,-1.7578 -0.39715,-3.0729 -1.19141,-3.94531 -0.78126,-0.8854 -1.8034,-1.32811 -3.06641,-1.32812 -1.57553,10e-6 -2.98829,0.69663 -4.23828,2.08984 l -4.45312,-0.64453 2.8125,-14.90234 14.51172,0 0,5.13671 -10.35157,0 -0.85937,4.86329 c 1.22395,-0.61196 2.47395,-0.91795 3.75,-0.91797 2.43488,2e-5 4.49868,0.88543 6.19141,2.65625 1.69268,1.77084 2.53904,4.06902 2.53906,6.89453 -2e-5,2.35678 -0.68362,4.45964 -2.05078,6.30859 -1.862,2.52604 -4.44663,3.78906 -7.75391,3.78906 -2.64324,0 -4.79818,-0.70963 -6.46484,-2.1289 -1.66667,-1.41927 -2.66277,-3.32682 -2.98828,-5.72266"
             style="font-size:40px;font-style:normal;font-variant:normal;font-weight:bold;font-stretch:normal;line-height:125%;letter-spacing:0px;word-spacing:0px;fill:#000000;fill-opacity:1;stroke:none;font-family:Arial;-inkscape-font-specification:Arial Bold"
             id="path3129"
             inkscape:connector-curvature="0" />
        </g>
        <g
           id="g3459"
           transform="translate(241.34886,-426.21111)">
          <path
             d="m 239.19667,938.22344 -5.48828,0 0,-20.68359 c -2.00521,1.87502 -4.36849,3.26174 -7.08984,4.16016 l 0,-4.98047 c 1.43229,-0.46873 2.98827,-1.35415 4.66797,-2.65625 1.67968,-1.31508 2.83202,-2.84503 3.45703,-4.58985 l 4.45312,0 0,28.75"
             style="font-size:40px;font-style:normal;font-variant:normal;font-weight:bold;font-stretch:normal;line-height:125%;letter-spacing:0px;word-spacing:0px;fill:#000000;fill-opacity:1;stroke:none;font-family:Arial;-inkscape-font-specification:Arial Bold"
             id="path3145"
             inkscape:connector-curvature="0" />
          <path
             d="m 247.49746,930.86016 5.46875,-0.5664 c 0.15624,1.23698 0.61848,2.22005 1.38671,2.94921 0.76822,0.71615 1.65364,1.07423 2.65625,1.07422 1.14583,10e-6 2.11588,-0.46223 2.91016,-1.38672 0.79426,-0.93749 1.19139,-2.34374 1.19141,-4.21875 -2e-5,-1.7578 -0.39715,-3.0729 -1.19141,-3.94531 -0.78126,-0.8854 -1.8034,-1.32811 -3.06641,-1.32812 -1.57553,10e-6 -2.98829,0.69663 -4.23828,2.08984 l -4.45312,-0.64453 2.8125,-14.90234 14.51172,0 0,5.13671 -10.35157,0 -0.85937,4.86329 c 1.22395,-0.61196 2.47395,-0.91795 3.75,-0.91797 2.43488,2e-5 4.49868,0.88543 6.19141,2.65625 1.69268,1.77084 2.53904,4.06902 2.53906,6.89453 -2e-5,2.35678 -0.68362,4.45964 -2.05078,6.30859 -1.862,2.52604 -4.44663,3.78906 -7.75391,3.78906 -2.64324,0 -4.79818,-0.70963 -6.46484,-2.1289 -1.66667,-1.41927 -2.66277,-3.32682 -2.98828,-5.72266"
             style="font-size:40px;font-style:normal;font-variant:normal;font-weight:bold;font-stretch:normal;line-height:125%;letter-spacing:0px;word-spacing:0px;fill:#000000;fill-opacity:1;stroke:none;font-family:Arial;-inkscape-font-specification:Arial Bold"
             id="path3147"
             inkscape:connector-curvature="0" />
          <path
             d="m 270.15371,930.02032 5.89843,-5.89844 -5.9375,-5.91797 3.63282,-3.63281 5.9375,5.91797 5.89843,-5.89844 3.53516,3.55469 -5.89844,5.89844 5.95703,5.95703 -3.63281,3.63281 -5.95703,-5.95703 -5.89844,5.89844 -3.53515,-3.55469"
             style="font-size:40px;font-style:normal;font-variant:normal;font-weight:bold;font-stretch:normal;line-height:125%;letter-spacing:0px;word-spacing:0px;fill:#000000;fill-opacity:1;stroke:none;font-family:Arial;-inkscape-font-specification:Arial Bold"
             id="path3149"
             inkscape:connector-curvature="0" />
          <path
             d="m 311.57949,933.12579 0,5.09765 -19.23828,0 c 0.20833,-1.92708 0.83333,-3.74999 1.875,-5.46875 1.04166,-1.73176 3.09895,-4.02342 6.17187,-6.875 2.47395,-2.30467 3.99087,-3.86717 4.55078,-4.6875 0.7552,-1.13279 1.1328,-2.25258 1.13281,-3.35937 -10e-6,-1.22394 -0.33204,-2.16144 -0.99609,-2.8125 -0.65105,-0.66404 -1.556,-0.99607 -2.71484,-0.9961 -1.14585,3e-5 -2.0573,0.34508 -2.73438,1.03516 -0.67709,0.69013 -1.06771,1.83596 -1.17187,3.4375 l -5.46875,-0.54687 c 0.32552,-3.02081 1.34765,-5.18878 3.0664,-6.50391 1.71875,-1.31508 3.86718,-1.97263 6.44532,-1.97266 2.8255,3e-5 5.04555,0.76175 6.66015,2.28516 1.61457,1.52346 2.42186,3.41799 2.42188,5.68359 -2e-5,1.28909 -0.2344,2.51955 -0.70313,3.69141 -0.45575,1.15887 -1.18491,2.37632 -2.1875,3.65234 -0.66408,0.84637 -1.86199,2.06382 -3.59375,3.65235 -1.73178,1.58855 -2.83204,2.64323 -3.30078,3.16406 -0.45574,0.52084 -0.82683,1.02865 -1.11328,1.52344 l 10.89844,0"
             style="font-size:40px;font-style:normal;font-variant:normal;font-weight:bold;font-stretch:normal;line-height:125%;letter-spacing:0px;word-spacing:0px;fill:#000000;fill-opacity:1;stroke:none;font-family:Arial;-inkscape-font-specification:Arial Bold"
             id="path3151"
             inkscape:connector-curvature="0" />
          <path
             d="m 329.35292,938.22344 -5.48828,0 0,-20.68359 c -2.00521,1.87502 -4.36849,3.26174 -7.08984,4.16016 l 0,-4.98047 c 1.43229,-0.46873 2.98827,-1.35415 4.66797,-2.65625 1.67968,-1.31508 2.83202,-2.84503 3.45703,-4.58985 l 4.45312,0 0,28.75"
             style="font-size:40px;font-style:normal;font-variant:normal;font-weight:bold;font-stretch:normal;line-height:125%;letter-spacing:0px;word-spacing:0px;fill:#000000;fill-opacity:1;stroke:none;font-family:Arial;-inkscape-font-specification:Arial Bold"
             id="path3153"
             inkscape:connector-curvature="0" />
        </g>
        <g
           id="g3466"
           transform="translate(417.75126,-466.22088)">
          <path
             d="m 239.19667,988.22344 -5.48828,0 0,-20.68359 c -2.00521,1.87502 -4.36849,3.26174 -7.08984,4.16016 l 0,-4.98047 c 1.43229,-0.46873 2.98827,-1.35415 4.66797,-2.65625 1.67968,-1.31508 2.83202,-2.84503 3.45703,-4.58985 l 4.45312,0 0,28.75"
             style="font-size:40px;font-style:normal;font-variant:normal;font-weight:bold;font-stretch:normal;line-height:125%;letter-spacing:0px;word-spacing:0px;fill:#000000;fill-opacity:1;stroke:none;font-family:Arial;-inkscape-font-specification:Arial Bold"
             id="path3169"
             inkscape:connector-curvature="0" />
          <path
             d="m 247.53652,981.60235 5.3125,-0.58594 c 0.1302,1.08074 0.46874,1.88152 1.01562,2.40235 0.54687,0.52083 1.26952,0.78125 2.16797,0.78125 1.1328,0 2.09634,-0.52083 2.89063,-1.5625 0.79425,-1.04166 1.30207,-3.20312 1.52343,-6.48438 -1.38022,1.60157 -3.10548,2.40235 -5.17578,2.40234 -2.25261,10e-6 -4.19922,-0.86587 -5.83984,-2.59765 -1.62761,-1.74478 -2.44141,-4.0104 -2.44141,-6.79688 0,-2.90362 0.85938,-5.24086 2.57813,-7.01172 1.73176,-1.78382 3.93228,-2.67575 6.60156,-2.67578 2.90363,3e-5 5.28644,1.12633 7.14844,3.37891 1.86196,2.23961 2.79295,5.93101 2.79297,11.07422 -2e-5,5.23438 -0.97007,9.01042 -2.91016,11.32812 -1.94012,2.31771 -4.46616,3.47657 -7.57812,3.47657 -2.2396,0 -4.04949,-0.59245 -5.42969,-1.77735 -1.38021,-1.19791 -2.26563,-2.98176 -2.65625,-5.35156 m 12.42187,-11.99219 c -1e-5,-1.77081 -0.41017,-3.14451 -1.23047,-4.12109 -0.8073,-0.97654 -1.7448,-1.46482 -2.8125,-1.46485 -1.01563,3e-5 -1.86198,0.40367 -2.53906,1.21094 -0.66407,0.79429 -0.9961,2.10289 -0.99609,3.92578 -1e-5,1.84898 0.36457,3.20965 1.09375,4.08203 0.72916,0.85939 1.64061,1.28908 2.73437,1.28907 1.05468,10e-6 1.94009,-0.41666 2.65625,-1.25 0.72916,-0.83332 1.09374,-2.05728 1.09375,-3.67188"
             style="font-size:40px;font-style:normal;font-variant:normal;font-weight:bold;font-stretch:normal;line-height:125%;letter-spacing:0px;word-spacing:0px;fill:#000000;fill-opacity:1;stroke:none;font-family:Arial;-inkscape-font-specification:Arial Bold"
             id="path3171"
             inkscape:connector-curvature="0" />
          <path
             d="m 279.31386,988.22344 7.48047,-10.68359 -7.16797,-10.05859 6.69922,0 3.67188,5.70312 3.86718,-5.70312 6.44532,0 -7.03125,9.82421 7.67578,10.91797 -6.73828,0 -4.21875,-6.42578 -4.25782,6.42578 -6.42578,0"
             style="font-size:40px;font-style:normal;font-variant:normal;font-weight:bold;font-stretch:normal;line-height:125%;letter-spacing:0px;word-spacing:0px;fill:#000000;fill-opacity:1;stroke:none;font-family:Arial;-inkscape-font-specification:Arial Bold"
             id="path3173"
             inkscape:connector-curvature="0" />
          <path
             d="m 328.18105,988.22344 -5.48828,0 0,-20.68359 c -2.00522,1.87502 -4.3685,3.26174 -7.08985,4.16016 l 0,-4.98047 c 1.43229,-0.46873 2.98828,-1.35415 4.66797,-2.65625 1.67968,-1.31508 2.83202,-2.84503 3.45703,-4.58985 l 4.45313,0 0,28.75"
             style="font-size:40px;font-style:normal;font-variant:normal;font-weight:bold;font-stretch:normal;line-height:125%;letter-spacing:0px;word-spacing:0px;fill:#000000;fill-opacity:1;stroke:none;font-family:Arial;-inkscape-font-specification:Arial Bold"
             id="path3175"
             inkscape:connector-curvature="0" />
          <path
             d="m 336.52089,981.60235 5.3125,-0.58594 c 0.1302,1.08074 0.46875,1.88152 1.01563,2.40235 0.54686,0.52083 1.26952,0.78125 2.16797,0.78125 1.1328,0 2.09634,-0.52083 2.89062,-1.5625 0.79426,-1.04166 1.30207,-3.20312 1.52344,-6.48438 -1.38022,1.60157 -3.10548,2.40235 -5.17578,2.40234 -2.25261,10e-6 -4.19923,-0.86587 -5.83985,-2.59765 -1.6276,-1.74478 -2.4414,-4.0104 -2.4414,-6.79688 0,-2.90362 0.85937,-5.24086 2.57812,-7.01172 1.73177,-1.78382 3.93229,-2.67575 6.60157,-2.67578 2.90363,3e-5 5.28644,1.12633 7.14843,3.37891 1.86196,2.23961 2.79295,5.93101 2.79297,11.07422 -2e-5,5.23438 -0.97007,9.01042 -2.91015,11.32812 -1.94012,2.31771 -4.46616,3.47657 -7.57813,3.47657 -2.23959,0 -4.04948,-0.59245 -5.42969,-1.77735 -1.38021,-1.19791 -2.26562,-2.98176 -2.65625,-5.35156 m 12.42188,-11.99219 c -2e-5,-1.77081 -0.41017,-3.14451 -1.23047,-4.12109 -0.8073,-0.97654 -1.7448,-1.46482 -2.8125,-1.46485 -1.01563,3e-5 -1.86199,0.40367 -2.53906,1.21094 -0.66407,0.79429 -0.9961,2.10289 -0.9961,3.92578 0,1.84898 0.36458,3.20965 1.09375,4.08203 0.72916,0.85939 1.64062,1.28908 2.73438,1.28907 1.05467,10e-6 1.94009,-0.41666 2.65625,-1.25 0.72915,-0.83332 1.09373,-2.05728 1.09375,-3.67188"
             style="font-size:40px;font-style:normal;font-variant:normal;font-weight:bold;font-stretch:normal;line-height:125%;letter-spacing:0px;word-spacing:0px;fill:#000000;fill-opacity:1;stroke:none;font-family:Arial;-inkscape-font-specification:Arial Bold"
             id="path3177"
             inkscape:connector-curvature="0" />
        </g>
        <g
           id="g3473"
           transform="translate(614.23887,-513.16033)">
          <path
             d="m 243.68886,1033.1258 0,5.0976 -19.23828,0 c 0.20833,-1.927 0.83333,-3.7499 1.875,-5.4687 1.04166,-1.7318 3.09895,-4.0234 6.17188,-6.875 2.47394,-2.3047 3.99087,-3.8672 4.55078,-4.6875 0.75519,-1.1328 1.13279,-2.2526 1.13281,-3.3594 -2e-5,-1.2239 -0.33205,-2.1614 -0.99609,-2.8125 -0.65106,-0.664 -1.55601,-0.9961 -2.71485,-0.9961 -1.14584,1e-4 -2.0573,0.3451 -2.73437,1.0352 -0.67709,0.6901 -1.06772,1.8359 -1.17188,3.4375 l -5.46875,-0.5469 c 0.32552,-3.0208 1.34766,-5.1888 3.06641,-6.5039 1.71874,-1.3151 3.86718,-1.9726 6.44531,-1.9727 2.82551,10e-5 5.04556,0.7618 6.66016,2.2852 1.61456,1.5235 2.42185,3.418 2.42187,5.6836 -2e-5,1.2891 -0.23439,2.5195 -0.70312,3.6914 -0.45575,1.1589 -1.18492,2.3763 -2.1875,3.6523 -0.66408,0.8464 -1.862,2.0639 -3.59375,3.6524 -1.73179,1.5885 -2.83205,2.6432 -3.30078,3.164 -0.45574,0.5209 -0.82684,1.0287 -1.11329,1.5235 l 10.89844,0"
             style="font-size:40px;font-style:normal;font-variant:normal;font-weight:bold;font-stretch:normal;line-height:125%;letter-spacing:0px;word-spacing:0px;fill:#000000;fill-opacity:1;stroke:none;font-family:Arial;-inkscape-font-specification:Arial Bold"
             id="path3193"
             inkscape:connector-curvature="0" />
          <path
             d="m 265.95449,1033.1258 0,5.0976 -19.23828,0 c 0.20833,-1.927 0.83333,-3.7499 1.875,-5.4687 1.04166,-1.7318 3.09895,-4.0234 6.17187,-6.875 2.47395,-2.3047 3.99087,-3.8672 4.55078,-4.6875 0.7552,-1.1328 1.1328,-2.2526 1.13281,-3.3594 -10e-6,-1.2239 -0.33204,-2.1614 -0.99609,-2.8125 -0.65105,-0.664 -1.556,-0.9961 -2.71484,-0.9961 -1.14585,1e-4 -2.0573,0.3451 -2.73438,1.0352 -0.67709,0.6901 -1.06771,1.8359 -1.17187,3.4375 l -5.46875,-0.5469 c 0.32552,-3.0208 1.34765,-5.1888 3.0664,-6.5039 1.71875,-1.3151 3.86718,-1.9726 6.44532,-1.9727 2.8255,10e-5 5.04555,0.7618 6.66015,2.2852 1.61457,1.5235 2.42186,3.418 2.42188,5.6836 -2e-5,1.2891 -0.2344,2.5195 -0.70313,3.6914 -0.45575,1.1589 -1.18491,2.3763 -2.1875,3.6523 -0.66408,0.8464 -1.86199,2.0639 -3.59375,3.6524 -1.73178,1.5885 -2.83204,2.6432 -3.30078,3.164 -0.45574,0.5209 -0.82683,1.0287 -1.11328,1.5235 l 10.89844,0"
             style="font-size:40px;font-style:normal;font-variant:normal;font-weight:bold;font-stretch:normal;line-height:125%;letter-spacing:0px;word-spacing:0px;fill:#000000;fill-opacity:1;stroke:none;font-family:Arial;-inkscape-font-specification:Arial Bold"
             id="path3195"
             inkscape:connector-curvature="0" />
          <path
             d="m 270.72011,1032.7352 5.48828,0 0,3.9257 c -1e-5,1.5886 -0.13672,2.8386 -0.41015,3.75 -0.27345,0.9245 -0.79428,1.7513 -1.5625,2.4805 -0.75522,0.7292 -1.71876,1.3021 -2.89063,1.7188 l -1.07422,-2.2657 c 1.10677,-0.3645 1.89453,-0.8658 2.36328,-1.5039 0.46875,-0.638 0.71614,-1.5104 0.74219,-2.6172 l -2.65625,0 0,-5.4882"
             style="font-size:40px;font-style:normal;font-variant:normal;font-weight:bold;font-stretch:normal;line-height:125%;letter-spacing:0px;word-spacing:0px;fill:#000000;fill-opacity:1;stroke:none;font-family:Arial;-inkscape-font-specification:Arial Bold"
             id="path3197"
             inkscape:connector-curvature="0" />
          <path
             d="m 280.89589,1031.6024 5.3125,-0.586 c 0.1302,1.0808 0.46875,1.8815 1.01563,2.4024 0.54686,0.5208 1.26952,0.7812 2.16797,0.7812 1.1328,0 2.09634,-0.5208 2.89062,-1.5625 0.79426,-1.0416 1.30207,-3.2031 1.52344,-6.4844 -1.38022,1.6016 -3.10548,2.4024 -5.17578,2.4024 -2.25261,0 -4.19923,-0.8659 -5.83985,-2.5977 -1.6276,-1.7448 -2.4414,-4.0104 -2.4414,-6.7969 0,-2.9036 0.85937,-5.2408 2.57812,-7.0117 1.73177,-1.7838 3.93229,-2.6757 6.60157,-2.6758 2.90363,10e-5 5.28644,1.1264 7.14843,3.3789 1.86196,2.2397 2.79295,5.9311 2.79297,11.0743 -2e-5,5.2344 -0.97007,9.0104 -2.91015,11.3281 -1.94012,2.3177 -4.46616,3.4766 -7.57813,3.4766 -2.23959,0 -4.04948,-0.5925 -5.42969,-1.7774 -1.38021,-1.1979 -2.26562,-2.9817 -2.65625,-5.3515 m 12.42188,-11.9922 c -2e-5,-1.7709 -0.41017,-3.1446 -1.23047,-4.1211 -0.8073,-0.9766 -1.7448,-1.4649 -2.8125,-1.4649 -1.01563,1e-4 -1.86199,0.4037 -2.53906,1.211 -0.66407,0.7943 -0.9961,2.1029 -0.9961,3.9257 0,1.849 0.36458,3.2097 1.09375,4.0821 0.72916,0.8594 1.64062,1.2891 2.73438,1.289 1.05467,10e-5 1.94009,-0.4166 2.65625,-1.25 0.72915,-0.8333 1.09373,-2.0572 1.09375,-3.6718"
             style="font-size:40px;font-style:normal;font-variant:normal;font-weight:bold;font-stretch:normal;line-height:125%;letter-spacing:0px;word-spacing:0px;fill:#000000;fill-opacity:1;stroke:none;font-family:Arial;-inkscape-font-specification:Arial Bold"
             id="path3199"
             inkscape:connector-curvature="0" />
          <path
             d="m 312.67324,1038.2234 7.48047,-10.6835 -7.16797,-10.0586 6.69922,0 3.67187,5.7031 3.86719,-5.7031 6.44531,0 -7.03125,9.8242 7.67578,10.9179 -6.73828,0 -4.21875,-6.4257 -4.25781,6.4257 -6.42578,0"
             style="font-size:40px;font-style:normal;font-variant:normal;font-weight:bold;font-stretch:normal;line-height:125%;letter-spacing:0px;word-spacing:0px;fill:#000000;fill-opacity:1;stroke:none;font-family:Arial;-inkscape-font-specification:Arial Bold"
             id="path3201"
             inkscape:connector-curvature="0" />
          <path
             d="m 361.54042,1038.2234 -5.48828,0 0,-20.6836 c -2.00521,1.8751 -4.36849,3.2618 -7.08984,4.1602 l 0,-4.9805 c 1.43229,-0.4687 2.98827,-1.3541 4.66797,-2.6562 1.67968,-1.3151 2.83202,-2.845 3.45703,-4.5899 l 4.45312,0 0,28.75"
             style="font-size:40px;font-style:normal;font-variant:normal;font-weight:bold;font-stretch:normal;line-height:125%;letter-spacing:0px;word-spacing:0px;fill:#000000;fill-opacity:1;stroke:none;font-family:Arial;-inkscape-font-specification:Arial Bold"
             id="path3203"
             inkscape:connector-curvature="0" />
          <path
             d="m 369.76308,1015.0789 0,-5.0976 18.76953,0 0,3.9843 c -1.5495,1.5235 -3.12502,3.711 -4.72656,6.5625 -1.60158,2.8516 -2.82553,5.8855 -3.67188,9.1016 -0.83334,3.2031 -1.2435,6.0677 -1.23046,8.5937 l -5.29297,0 c 0.0911,-3.9583 0.90494,-7.9947 2.4414,-12.1093 1.54947,-4.1146 3.61327,-7.793 6.19141,-11.0352 l -12.48047,0"
             style="font-size:40px;font-style:normal;font-variant:normal;font-weight:bold;font-stretch:normal;line-height:125%;letter-spacing:0px;word-spacing:0px;fill:#000000;fill-opacity:1;stroke:none;font-family:Arial;-inkscape-font-specification:Arial Bold"
             id="path3205"
             inkscape:connector-curvature="0" />
          <path
             d="m 393.06386,1032.7352 5.48828,0 0,3.9257 c -1e-5,1.5886 -0.13672,2.8386 -0.41015,3.75 -0.27345,0.9245 -0.79428,1.7513 -1.5625,2.4805 -0.75522,0.7292 -1.71876,1.3021 -2.89063,1.7188 l -1.07422,-2.2657 c 1.10677,-0.3645 1.89453,-0.8658 2.36328,-1.5039 0.46875,-0.638 0.71614,-1.5104 0.74219,-2.6172 l -2.65625,0 0,-5.4882"
             style="font-size:40px;font-style:normal;font-variant:normal;font-weight:bold;font-stretch:normal;line-height:125%;letter-spacing:0px;word-spacing:0px;fill:#000000;fill-opacity:1;stroke:none;font-family:Arial;-inkscape-font-specification:Arial Bold"
             id="path3207"
             inkscape:connector-curvature="0" />
          <path
             d="m 407.82949,1022.7742 c -1.41928,-0.5989 -2.45443,-1.4192 -3.10547,-2.4609 -0.63803,-1.0547 -0.95704,-2.207 -0.95703,-3.457 -1e-5,-2.1354 0.74218,-3.8998 2.22656,-5.293 1.49739,-1.3932 3.61978,-2.0898 6.36719,-2.0899 2.72134,10e-5 4.83071,0.6967 6.32812,2.0899 1.5104,1.3932 2.26561,3.1576 2.26563,5.293 -2e-5,1.3281 -0.34507,2.513 -1.03516,3.5546 -0.69012,1.0287 -1.66017,1.8165 -2.91016,2.3633 1.58853,0.6381 2.79295,1.5691 3.61329,2.793 0.83331,1.224 1.24998,2.6367 1.25,4.2383 -2e-5,2.6432 -0.84638,4.7916 -2.53907,6.4453 -1.6797,1.6536 -3.91928,2.4805 -6.71875,2.4805 -2.60417,0 -4.77214,-0.6836 -6.5039,-2.0508 -2.04428,-1.6146 -3.06641,-3.8281 -3.06641,-6.6406 0,-1.5495 0.38411,-2.9688 1.15234,-4.2579 0.76823,-1.302 1.97917,-2.3046 3.63282,-3.0078 m 1.13281,-5.5273 c -1e-5,1.0937 0.30598,1.9466 0.91797,2.5586 0.62499,0.612 1.45181,0.918 2.48047,0.9179 1.04165,10e-5 1.87498,-0.3059 2.5,-0.9179 0.62498,-0.625 0.93748,-1.4844 0.9375,-2.5782 -2e-5,-1.0286 -0.31252,-1.8489 -0.9375,-2.4609 -0.612,-0.625 -1.4258,-0.9375 -2.44141,-0.9375 -1.0547,0 -1.89454,0.3125 -2.51953,0.9375 -0.62501,0.625 -0.93751,1.4519 -0.9375,2.4805 m -0.50781,12.2656 c -1e-5,1.5104 0.3841,2.6888 1.15234,3.5352 0.78124,0.8463 1.75129,1.2695 2.91016,1.2695 1.1328,0 2.0703,-0.4036 2.8125,-1.2109 0.74217,-0.8203 1.11326,-1.9987 1.11328,-3.5352 -2e-5,-1.3411 -0.37762,-2.4153 -1.13281,-3.2227 -0.75523,-0.8203 -1.71226,-1.2304 -2.8711,-1.2304 -1.34115,0 -2.34376,0.4622 -3.00781,1.3867 -0.65105,0.9245 -0.97657,1.9271 -0.97656,3.0078"
             style="font-size:40px;font-style:normal;font-variant:normal;font-weight:bold;font-stretch:normal;line-height:125%;letter-spacing:0px;word-spacing:0px;fill:#000000;fill-opacity:1;stroke:none;font-family:Arial;-inkscape-font-specification:Arial Bold"
             id="path3209"
             inkscape:connector-curvature="0" />
        </g>
        <g
           id="g3484"
           transform="matrix(0.42397945,0,0,0.42397945,985.26373,58.73788)">
          <path
             d="m 239.19667,1088.2234 -5.48828,0 0,-20.6835 c -2.00521,1.875 -4.36849,3.2617 -7.08984,4.1601 l 0,-4.9805 c 1.43229,-0.4687 2.98827,-1.3541 4.66797,-2.6562 1.67968,-1.3151 2.83202,-2.845 3.45703,-4.5899 l 4.45312,0 0,28.75"
             style="font-size:40px;font-style:normal;font-variant:normal;font-weight:bold;font-stretch:normal;line-height:125%;letter-spacing:0px;word-spacing:0px;fill:#000000;fill-opacity:1;stroke:none;font-family:Arial;-inkscape-font-specification:Arial Bold"
             id="path3225"
             inkscape:connector-curvature="0" />
          <path
             d="m 256.69667,1059.4734 c 2.77343,10e-5 4.94139,0.9897 6.50391,2.9688 1.86196,2.3438 2.79295,6.2305 2.79297,11.6602 -2e-5,5.4166 -0.93752,9.3099 -2.8125,11.6796 -1.5495,1.9532 -3.71095,2.9297 -6.48438,2.9297 -2.78646,0 -5.03255,-1.0677 -6.73828,-3.2031 -1.70573,-2.1484 -2.55859,-5.97 -2.55859,-11.4648 0,-5.3906 0.9375,-9.2708 2.8125,-11.6407 1.54947,-1.9531 3.71093,-2.9296 6.48437,-2.9297 m 0,4.5508 c -0.66407,10e-5 -1.25652,0.2149 -1.77734,0.6446 -0.52084,0.4167 -0.92449,1.1719 -1.21094,2.2656 -0.37761,1.4193 -0.56641,3.8086 -0.5664,7.168 -1e-5,3.3593 0.16926,5.6705 0.50781,6.9335 0.33853,1.2501 0.76171,2.0834 1.26953,2.5 0.52082,0.4167 1.11327,0.6251 1.77734,0.625 0.66406,10e-5 1.2565,-0.2083 1.77735,-0.625 0.52082,-0.4296 0.92446,-1.1914 1.21094,-2.2851 0.37759,-1.4062 0.56639,-3.7891 0.5664,-7.1485 -10e-6,-3.3593 -0.16928,-5.664 -0.50781,-6.914 -0.33856,-1.263 -0.76824,-2.1028 -1.28906,-2.5195 -0.50783,-0.4297 -1.09376,-0.6445 -1.75782,-0.6446"
             style="font-size:40px;font-style:normal;font-variant:normal;font-weight:bold;font-stretch:normal;line-height:125%;letter-spacing:0px;word-spacing:0px;fill:#000000;fill-opacity:1;stroke:none;font-family:Arial;-inkscape-font-specification:Arial Bold"
             id="path3227"
             inkscape:connector-curvature="0" />
          <path
             d="m 270.72011,1082.7352 5.48828,0 0,3.9257 c -1e-5,1.5886 -0.13672,2.8386 -0.41015,3.75 -0.27345,0.9245 -0.79428,1.7513 -1.5625,2.4805 -0.75522,0.7292 -1.71876,1.3021 -2.89063,1.7188 l -1.07422,-2.2657 c 1.10677,-0.3645 1.89453,-0.8658 2.36328,-1.5039 0.46875,-0.638 0.71614,-1.5104 0.74219,-2.6172 l -2.65625,0 0,-5.4882"
             style="font-size:40px;font-style:normal;font-variant:normal;font-weight:bold;font-stretch:normal;line-height:125%;letter-spacing:0px;word-spacing:0px;fill:#000000;fill-opacity:1;stroke:none;font-family:Arial;-inkscape-font-specification:Arial Bold"
             id="path3229"
             inkscape:connector-curvature="0" />
          <path
             d="m 285.48574,1072.7742 c -1.41928,-0.5989 -2.45443,-1.4192 -3.10547,-2.4609 -0.63803,-1.0547 -0.95704,-2.207 -0.95703,-3.457 -1e-5,-2.1354 0.74218,-3.8998 2.22656,-5.293 1.49739,-1.3932 3.61978,-2.0898 6.36719,-2.0899 2.72134,10e-5 4.83071,0.6967 6.32812,2.0899 1.5104,1.3932 2.26561,3.1576 2.26563,5.293 -2e-5,1.3281 -0.34507,2.513 -1.03516,3.5546 -0.69012,1.0287 -1.66017,1.8165 -2.91016,2.3633 1.58853,0.6381 2.79295,1.5691 3.61329,2.793 0.83331,1.224 1.24998,2.6367 1.25,4.2383 -2e-5,2.6432 -0.84638,4.7916 -2.53907,6.4453 -1.6797,1.6536 -3.91928,2.4805 -6.71875,2.4805 -2.60417,0 -4.77214,-0.6836 -6.5039,-2.0508 -2.04428,-1.6146 -3.06641,-3.8281 -3.06641,-6.6406 0,-1.5495 0.38411,-2.9688 1.15234,-4.2579 0.76823,-1.302 1.97917,-2.3046 3.63282,-3.0078 m 1.13281,-5.5273 c -1e-5,1.0938 0.30598,1.9466 0.91797,2.5586 0.62499,0.612 1.45181,0.918 2.48047,0.9179 1.04165,10e-5 1.87498,-0.3059 2.5,-0.9179 0.62498,-0.625 0.93748,-1.4844 0.9375,-2.5781 -2e-5,-1.0287 -0.31252,-1.849 -0.9375,-2.461 -0.612,-0.625 -1.4258,-0.9375 -2.44141,-0.9375 -1.0547,0 -1.89454,0.3125 -2.51953,0.9375 -0.62501,0.625 -0.93751,1.4519 -0.9375,2.4805 m -0.50781,12.2656 c -1e-5,1.5104 0.3841,2.6888 1.15234,3.5352 0.78124,0.8463 1.75129,1.2695 2.91016,1.2695 1.1328,0 2.0703,-0.4036 2.8125,-1.2109 0.74217,-0.8203 1.11326,-1.9987 1.11328,-3.5352 -2e-5,-1.3411 -0.37762,-2.4153 -1.13281,-3.2227 -0.75523,-0.8203 -1.71226,-1.2304 -2.8711,-1.2304 -1.34115,0 -2.34376,0.4622 -3.00781,1.3867 -0.65105,0.9245 -0.97657,1.9271 -0.97656,3.0078"
             style="font-size:40px;font-style:normal;font-variant:normal;font-weight:bold;font-stretch:normal;line-height:125%;letter-spacing:0px;word-spacing:0px;fill:#000000;fill-opacity:1;stroke:none;font-family:Arial;-inkscape-font-specification:Arial Bold"
             id="path3231"
             inkscape:connector-curvature="0" />
          <path
             d="m 312.67324,1088.2234 7.48047,-10.6835 -7.16797,-10.0586 6.69922,0 3.67187,5.7031 3.86719,-5.7031 6.44531,0 -7.03125,9.8242 7.67578,10.9179 -6.73828,0 -4.21875,-6.4257 -4.25781,6.4257 -6.42578,0"
             style="font-size:40px;font-style:normal;font-variant:normal;font-weight:bold;font-stretch:normal;line-height:125%;letter-spacing:0px;word-spacing:0px;fill:#000000;fill-opacity:1;stroke:none;font-family:Arial;-inkscape-font-specification:Arial Bold"
             id="path3233"
             inkscape:connector-curvature="0" />
          <path
             d="m 361.54042,1088.2234 -5.48828,0 0,-20.6835 c -2.00521,1.875 -4.36849,3.2617 -7.08984,4.1601 l 0,-4.9805 c 1.43229,-0.4687 2.98827,-1.3541 4.66797,-2.6562 1.67968,-1.3151 2.83202,-2.845 3.45703,-4.5899 l 4.45312,0 0,28.75"
             style="font-size:40px;font-style:normal;font-variant:normal;font-weight:bold;font-stretch:normal;line-height:125%;letter-spacing:0px;word-spacing:0px;fill:#000000;fill-opacity:1;stroke:none;font-family:Arial;-inkscape-font-specification:Arial Bold"
             id="path3235"
             inkscape:connector-curvature="0" />
          <path
             d="m 369.76308,1065.0789 0,-5.0976 18.76953,0 0,3.9843 c -1.5495,1.5235 -3.12502,3.711 -4.72656,6.5625 -1.60158,2.8516 -2.82553,5.8855 -3.67188,9.1016 -0.83334,3.2031 -1.2435,6.0677 -1.23046,8.5937 l -5.29297,0 c 0.0911,-3.9583 0.90494,-7.9947 2.4414,-12.1093 1.54947,-4.1146 3.61327,-7.793 6.19141,-11.0352 l -12.48047,0"
             style="font-size:40px;font-style:normal;font-variant:normal;font-weight:bold;font-stretch:normal;line-height:125%;letter-spacing:0px;word-spacing:0px;fill:#000000;fill-opacity:1;stroke:none;font-family:Arial;-inkscape-font-specification:Arial Bold"
             id="path3237"
             inkscape:connector-curvature="0" />
          <path
             d="m 393.06386,1082.7352 5.48828,0 0,3.9257 c -1e-5,1.5886 -0.13672,2.8386 -0.41015,3.75 -0.27345,0.9245 -0.79428,1.7513 -1.5625,2.4805 -0.75522,0.7292 -1.71876,1.3021 -2.89063,1.7188 l -1.07422,-2.2657 c 1.10677,-0.3645 1.89453,-0.8658 2.36328,-1.5039 0.46875,-0.638 0.71614,-1.5104 0.74219,-2.6172 l -2.65625,0 0,-5.4882"
             style="font-size:40px;font-style:normal;font-variant:normal;font-weight:bold;font-stretch:normal;line-height:125%;letter-spacing:0px;word-spacing:0px;fill:#000000;fill-opacity:1;stroke:none;font-family:Arial;-inkscape-font-specification:Arial Bold"
             id="path3239"
             inkscape:connector-curvature="0" />
          <path
             d="m 414.29433,1080.8602 5.46875,-0.5664 c 0.15624,1.2369 0.61848,2.22 1.38672,2.9492 0.76822,0.7161 1.65363,1.0742 2.65625,1.0742 1.14582,0 2.11587,-0.4622 2.91016,-1.3867 0.79425,-0.9375 1.19139,-2.3438 1.1914,-4.2188 -10e-6,-1.7578 -0.39715,-3.0729 -1.1914,-3.9453 -0.78127,-0.8854 -1.8034,-1.3281 -3.06641,-1.3281 -1.57553,0 -2.98829,0.6966 -4.23828,2.0898 l -4.45313,-0.6445 2.8125,-14.9023 14.51172,0 0,5.1367 -10.35156,0 -0.85938,4.8633 c 1.22395,-0.612 2.47395,-0.918 3.75,-0.918 2.43489,0 4.49869,0.8854 6.19141,2.6562 1.69269,1.7709 2.53904,4.0691 2.53906,6.8946 -2e-5,2.3568 -0.68361,4.4596 -2.05078,6.3086 -1.86199,2.526 -4.44663,3.789 -7.7539,3.789 -2.64324,0 -4.79819,-0.7096 -6.46485,-2.1289 -1.66667,-1.4192 -2.66276,-3.3268 -2.98828,-5.7226"
             style="font-size:40px;font-style:normal;font-variant:normal;font-weight:bold;font-stretch:normal;line-height:125%;letter-spacing:0px;word-spacing:0px;fill:#000000;fill-opacity:1;stroke:none;font-family:Arial;-inkscape-font-specification:Arial Bold"
             id="path3241"
             inkscape:connector-curvature="0" />
        </g>
        <g
           id="g3495"
           transform="translate(977.86278,-663.66033)">
          <path
             d="m 243.68886,1133.1258 0,5.0976 -19.23828,0 c 0.20833,-1.927 0.83333,-3.7499 1.875,-5.4687 1.04166,-1.7318 3.09895,-4.0234 6.17188,-6.875 2.47394,-2.3047 3.99087,-3.8672 4.55078,-4.6875 0.75519,-1.1328 1.13279,-2.2526 1.13281,-3.3594 -2e-5,-1.2239 -0.33205,-2.1614 -0.99609,-2.8125 -0.65106,-0.664 -1.55601,-0.996 -2.71485,-0.9961 -1.14584,10e-5 -2.0573,0.3451 -2.73437,1.0352 -0.67709,0.6901 -1.06772,1.8359 -1.17188,3.4375 l -5.46875,-0.5469 c 0.32552,-3.0208 1.34766,-5.1888 3.06641,-6.5039 1.71874,-1.3151 3.86718,-1.9726 6.44531,-1.9727 2.82551,10e-5 5.04556,0.7618 6.66016,2.2852 1.61456,1.5235 2.42185,3.418 2.42187,5.6836 -2e-5,1.2891 -0.23439,2.5195 -0.70312,3.6914 -0.45575,1.1589 -1.18492,2.3763 -2.1875,3.6523 -0.66408,0.8464 -1.862,2.0639 -3.59375,3.6524 -1.73179,1.5885 -2.83205,2.6432 -3.30078,3.164 -0.45574,0.5209 -0.82684,1.0287 -1.11329,1.5235 l 10.89844,0"
             style="font-size:40px;font-style:normal;font-variant:normal;font-weight:bold;font-stretch:normal;line-height:125%;letter-spacing:0px;word-spacing:0px;fill:#000000;fill-opacity:1;stroke:none;font-family:Arial;-inkscape-font-specification:Arial Bold"
             id="path3257"
             inkscape:connector-curvature="0" />
          <path
             d="m 261.4623,1138.2234 -5.48828,0 0,-20.6835 c -2.00522,1.875 -4.3685,3.2617 -7.08985,4.1601 l 0,-4.9805 c 1.43229,-0.4687 2.98828,-1.3541 4.66797,-2.6562 1.67968,-1.3151 2.83202,-2.845 3.45703,-4.5899 l 4.45313,0 0,28.75"
             style="font-size:40px;font-style:normal;font-variant:normal;font-weight:bold;font-stretch:normal;line-height:125%;letter-spacing:0px;word-spacing:0px;fill:#000000;fill-opacity:1;stroke:none;font-family:Arial;-inkscape-font-specification:Arial Bold"
             id="path3259"
             inkscape:connector-curvature="0" />
          <path
             d="m 270.72011,1132.7352 5.48828,0 0,3.9257 c -1e-5,1.5886 -0.13672,2.8386 -0.41015,3.75 -0.27345,0.9245 -0.79428,1.7513 -1.5625,2.4805 -0.75522,0.7292 -1.71876,1.3021 -2.89063,1.7188 l -1.07422,-2.2657 c 1.10677,-0.3645 1.89453,-0.8658 2.36328,-1.5039 0.46875,-0.638 0.71614,-1.5104 0.74219,-2.6172 l -2.65625,0 0,-5.4882"
             style="font-size:40px;font-style:normal;font-variant:normal;font-weight:bold;font-stretch:normal;line-height:125%;letter-spacing:0px;word-spacing:0px;fill:#000000;fill-opacity:1;stroke:none;font-family:Arial;-inkscape-font-specification:Arial Bold"
             id="path3261"
             inkscape:connector-curvature="0" />
          <path
             d="m 299.37246,1116.6024 -5.3125,0.5859 c -0.13023,-1.0937 -0.46877,-1.901 -1.01563,-2.4219 -0.54689,-0.5208 -1.25652,-0.7812 -2.12891,-0.7812 -1.15886,0 -2.14193,0.5208 -2.94921,1.5625 -0.79428,1.0417 -1.29558,3.2096 -1.50391,6.5039 1.36718,-1.6146 3.0664,-2.4219 5.09766,-2.4219 2.29165,0 4.25128,0.8724 5.8789,2.6172 1.64061,1.7448 2.46092,3.9974 2.46094,6.7578 -2e-5,2.9297 -0.8594,5.2799 -2.57813,7.0508 -1.71876,1.7708 -3.92579,2.6562 -6.62109,2.6562 -2.89063,0 -5.26693,-1.1198 -7.12891,-3.3593 -1.86198,-2.2526 -2.79297,-5.9375 -2.79296,-11.0547 -10e-6,-5.2474 0.97005,-9.03 2.91015,-11.3477 1.9401,-2.3177 4.45963,-3.4765 7.5586,-3.4766 2.17446,10e-5 3.97133,0.6121 5.39062,1.836 1.43227,1.2109 2.34373,2.9753 2.73438,5.293 m -12.44141,11.9726 c -1e-5,1.7839 0.41015,3.1641 1.23047,4.1406 0.8203,0.9636 1.7578,1.4454 2.8125,1.4453 1.01561,10e-5 1.86196,-0.3971 2.53906,-1.1914 0.67707,-0.7942 1.01561,-2.0963 1.01563,-3.9062 -2e-5,-1.862 -0.3646,-3.2227 -1.09375,-4.082 -0.72918,-0.8724 -1.64064,-1.3086 -2.73438,-1.3086 -1.0547,0 -1.94662,0.4166 -2.67578,1.25 -0.72918,0.8203 -1.09376,2.0377 -1.09375,3.6523"
             style="font-size:40px;font-style:normal;font-variant:normal;font-weight:bold;font-stretch:normal;line-height:125%;letter-spacing:0px;word-spacing:0px;fill:#000000;fill-opacity:1;stroke:none;font-family:Arial;-inkscape-font-specification:Arial Bold"
             id="path3263"
             inkscape:connector-curvature="0" />
          <path
             d="m 312.67324,1138.2234 7.48047,-10.6835 -7.16797,-10.0586 6.69922,0 3.67187,5.7031 3.86719,-5.7031 6.44531,0 -7.03125,9.8242 7.67578,10.9179 -6.73828,0 -4.21875,-6.4257 -4.25781,6.4257 -6.42578,0"
             style="font-size:40px;font-style:normal;font-variant:normal;font-weight:bold;font-stretch:normal;line-height:125%;letter-spacing:0px;word-spacing:0px;fill:#000000;fill-opacity:1;stroke:none;font-family:Arial;-inkscape-font-specification:Arial Bold"
             id="path3265"
             inkscape:connector-curvature="0" />
          <path
             d="m 366.03261,1133.1258 0,5.0976 -19.23828,0 c 0.20833,-1.927 0.83333,-3.7499 1.875,-5.4687 1.04166,-1.7318 3.09895,-4.0234 6.17188,-6.875 2.47394,-2.3047 3.99087,-3.8672 4.55078,-4.6875 0.75519,-1.1328 1.13279,-2.2526 1.13281,-3.3594 -2e-5,-1.2239 -0.33205,-2.1614 -0.99609,-2.8125 -0.65106,-0.664 -1.55601,-0.996 -2.71485,-0.9961 -1.14584,10e-5 -2.0573,0.3451 -2.73437,1.0352 -0.67709,0.6901 -1.06772,1.8359 -1.17188,3.4375 l -5.46875,-0.5469 c 0.32552,-3.0208 1.34766,-5.1888 3.06641,-6.5039 1.71874,-1.3151 3.86718,-1.9726 6.44531,-1.9727 2.82551,10e-5 5.04556,0.7618 6.66016,2.2852 1.61456,1.5235 2.42185,3.418 2.42187,5.6836 -2e-5,1.2891 -0.23439,2.5195 -0.70312,3.6914 -0.45575,1.1589 -1.18492,2.3763 -2.1875,3.6523 -0.66408,0.8464 -1.862,2.0639 -3.59375,3.6524 -1.73179,1.5885 -2.83205,2.6432 -3.30078,3.164 -0.45574,0.5209 -0.82684,1.0287 -1.11329,1.5235 l 10.89844,0"
             style="font-size:40px;font-style:normal;font-variant:normal;font-weight:bold;font-stretch:normal;line-height:125%;letter-spacing:0px;word-spacing:0px;fill:#000000;fill-opacity:1;stroke:none;font-family:Arial;-inkscape-font-specification:Arial Bold"
             id="path3267"
             inkscape:connector-curvature="0" />
          <path
             d="m 369.76308,1115.0789 0,-5.0976 18.76953,0 0,3.9843 c -1.5495,1.5235 -3.12502,3.711 -4.72656,6.5625 -1.60158,2.8516 -2.82553,5.8855 -3.67188,9.1016 -0.83334,3.2031 -1.2435,6.0677 -1.23046,8.5937 l -5.29297,0 c 0.0911,-3.9583 0.90494,-7.9947 2.4414,-12.1093 1.54947,-4.1146 3.61327,-7.793 6.19141,-11.0352 l -12.48047,0"
             style="font-size:40px;font-style:normal;font-variant:normal;font-weight:bold;font-stretch:normal;line-height:125%;letter-spacing:0px;word-spacing:0px;fill:#000000;fill-opacity:1;stroke:none;font-family:Arial;-inkscape-font-specification:Arial Bold"
             id="path3269"
             inkscape:connector-curvature="0" />
          <path
             d="m 393.06386,1132.7352 5.48828,0 0,3.9257 c -1e-5,1.5886 -0.13672,2.8386 -0.41015,3.75 -0.27345,0.9245 -0.79428,1.7513 -1.5625,2.4805 -0.75522,0.7292 -1.71876,1.3021 -2.89063,1.7188 l -1.07422,-2.2657 c 1.10677,-0.3645 1.89453,-0.8658 2.36328,-1.5039 0.46875,-0.638 0.71614,-1.5104 0.74219,-2.6172 l -2.65625,0 0,-5.4882"
             style="font-size:40px;font-style:normal;font-variant:normal;font-weight:bold;font-stretch:normal;line-height:125%;letter-spacing:0px;word-spacing:0px;fill:#000000;fill-opacity:1;stroke:none;font-family:Arial;-inkscape-font-specification:Arial Bold"
             id="path3271"
             inkscape:connector-curvature="0" />
          <path
             d="m 414.33339,1131.6024 5.3125,-0.586 c 0.1302,1.0808 0.46875,1.8815 1.01563,2.4024 0.54686,0.5208 1.26952,0.7812 2.16797,0.7812 1.1328,0 2.09634,-0.5208 2.89062,-1.5625 0.79426,-1.0416 1.30207,-3.2031 1.52344,-6.4844 -1.38022,1.6016 -3.10548,2.4024 -5.17578,2.4024 -2.25261,0 -4.19923,-0.8659 -5.83985,-2.5977 -1.6276,-1.7448 -2.4414,-4.0104 -2.4414,-6.7969 0,-2.9036 0.85937,-5.2408 2.57812,-7.0117 1.73177,-1.7838 3.93229,-2.6757 6.60157,-2.6758 2.90363,10e-5 5.28644,1.1264 7.14843,3.3789 1.86196,2.2397 2.79295,5.9311 2.79297,11.0743 -2e-5,5.2344 -0.97007,9.0104 -2.91015,11.3281 -1.94012,2.3177 -4.46616,3.4766 -7.57813,3.4766 -2.23959,0 -4.04948,-0.5925 -5.42969,-1.7774 -1.38021,-1.1979 -2.26562,-2.9817 -2.65625,-5.3515 m 12.42188,-11.9922 c -2e-5,-1.7708 -0.41017,-3.1445 -1.23047,-4.1211 -0.8073,-0.9766 -1.7448,-1.4648 -2.8125,-1.4649 -1.01563,10e-5 -1.86199,0.4037 -2.53906,1.211 -0.66407,0.7943 -0.9961,2.1029 -0.9961,3.9257 0,1.849 0.36458,3.2097 1.09375,4.0821 0.72916,0.8594 1.64062,1.2891 2.73438,1.289 1.05467,10e-5 1.94009,-0.4166 2.65625,-1.25 0.72915,-0.8333 1.09373,-2.0572 1.09375,-3.6718"
             style="font-size:40px;font-style:normal;font-variant:normal;font-weight:bold;font-stretch:normal;line-height:125%;letter-spacing:0px;word-spacing:0px;fill:#000000;fill-opacity:1;stroke:none;font-family:Arial;-inkscape-font-specification:Arial Bold"
             id="path3273"
             inkscape:connector-curvature="0" />
        </g>
      </g>
      <g
         id="g4839">
        <path
           style="opacity:0.15;fill:#000000;fill-opacity:1;stroke:none;filter:url(#filter4608)"
           d="m 551.3149,914.28576 -187.37526,3.4375 64.69816,65.65625 22.45128,5.625 216,0 -66.89117,-67.90625 -5.65625,0 -41.68567,-5.28125 -1.54106,-1.53125 z"
           id="path4442"
           inkscape:connector-curvature="0" />
        <path
           sodipodi:nodetypes="ccccc"
           inkscape:connector-curvature="0"
           id="path4416"
           d="m 436.459,696.07965 190.74626,-14.14222 0,279.00003 -190.74626,4.8562 z"
           style="fill:#ff5555;fill-opacity:1;stroke:none" />
        <path
           style="fill:#ffccaa;fill-opacity:1;stroke:none"
           d="M 439.41967,698.49132 625.40531,687.116 667.36959,712.10054 468.79466,729.54366 z"
           id="path4418"
           inkscape:connector-curvature="0"
           sodipodi:nodetypes="ccccc" />
        <path
           sodipodi:nodetypes="ccccc"
           inkscape:connector-curvature="0"
           id="path4420"
           d="m 453.42862,710.01865 216,0 0,279.00001 -215.99962,0 z"
           style="fill:#66b0e9;fill-opacity:1;stroke:none" />
        <path
           sodipodi:nodetypes="ccccc"
           inkscape:connector-curvature="0"
           id="path4422"
           d="m 436.45908,696.07965 16.96992,13.939 0,279.00001 -16.97,-23.225 z"
           style="fill:url(#linearGradient5490);fill-opacity:1;stroke:none" />
        <g
           transform="translate(-395.69093,0.183535)"
           id="g4757">
          <g
             id="g4759"
             transform="translate(78.205001,-252.55996)">
            <g
               transform="translate(137.07919,-30.304576)"
               id="g4761">
              <path
                 inkscape:connector-curvature="0"
                 id="path4763"
                 style="font-size:40px;font-style:oblique;font-variant:normal;font-weight:normal;font-stretch:normal;line-height:125%;letter-spacing:0px;word-spacing:0px;fill:#000000;fill-opacity:1;stroke:none;font-family:LMMonoProp10;-inkscape-font-specification:LMMonoProp10 Oblique"
                 d="m 726.00466,1098.8763 c 0.2,-1.24 -0.76,-1.24 -1.4,-1.24 l -6.16,0 c -0.64,0 -1.64,0 -1.84,1.24 -0.2,1.2 0.84,1.2 1.44,1.2 l 1.56,0 -11.12,19.96 -4.52,-19.96 1.56,0 c 0.6,0 1.64,0 1.84,-1.2 0.2,-1.24 -0.8,-1.24 -1.44,-1.24 l -6.16,0 c -0.6,0 -1.6,0 -1.8,1.2 -0.2,1.24 0.76,1.24 1.4,1.24 l 1.64,0 4.72,20.88 c 0.24,1 0.44,1.44 1.96,1.44 l 0.76,0 c 0.96,0 1.68,-0.04 2.44,-1.4 l 11.68,-20.92 1.64,0 c 0.6,0 1.6,0 1.8,-1.2" />
              <path
                 inkscape:connector-curvature="0"
                 id="path4765"
                 style="font-size:40px;font-style:oblique;font-variant:normal;font-weight:normal;font-stretch:normal;line-height:125%;letter-spacing:0px;word-spacing:0px;fill:#000000;fill-opacity:1;stroke:none;font-family:LMMonoProp10;-inkscape-font-specification:LMMonoProp10 Oblique"
                 d="m 734.07716,1120.8763 c 0.2,-1.24 -0.8,-1.24 -1.44,-1.24 l -1.76,0 2.2,-13.16 c 0.2,-1.24 0.04,-1.64 -1.32,-1.64 l -3.12,0 c -0.6,0 -1.64,0 -1.84,1.2 -0.2,1.24 0.84,1.24 1.44,1.24 l 1.96,0 -2.08,12.36 -2.16,0 c -0.64,0 -1.6,0 -1.8,1.24 -0.2,1.2 0.8,1.2 1.4,1.2 l 6.72,0 c 0.6,0 1.6,0 1.8,-1.2 m 0.68,-20.56 c 0.16,-1.08 -0.6,-2 -1.68,-2 -1.24,0 -2.2,1 -2.36,2 -0.2,1.08 0.56,2 1.64,2 1.24,0 2.24,-1 2.4,-2" />
              <path
                 inkscape:connector-curvature="0"
                 id="path4767"
                 style="font-size:40px;font-style:oblique;font-variant:normal;font-weight:normal;font-stretch:normal;line-height:125%;letter-spacing:0px;word-spacing:0px;fill:#000000;fill-opacity:1;stroke:none;font-family:LMMonoProp10;-inkscape-font-specification:LMMonoProp10 Oblique"
                 d="m 753.19591,1117.7163 c 0.2,-1.12 -0.96,-1.12 -1.2,-1.12 -0.64,0 -1.04,0.08 -1.48,0.88 -1.12,1.92 -3.12,2.4 -4.4,2.4 -3,0 -5.48,-2.16 -5.48,-5.44 l 11.52,0 c 0.84,0 1.6,0 1.84,-1.48 0.8,-4.76 -1.24,-8.48 -6.16,-8.48 -4.71999,0 -9.08,4.08 -9.88,8.88 -0.8,4.96 2.48001,8.96 7.52,8.96 5.08,0 7.56,-3.56 7.72,-4.6 m -1.88,-5.68 -10.24,0 c 1.04,-3 3.72,-5.12 6.36,-5.12 2,0 4.24,1 3.88,5.12" />
              <path
                 inkscape:connector-curvature="0"
                 id="path4769"
                 style="font-size:40px;font-style:oblique;font-variant:normal;font-weight:normal;font-stretch:normal;line-height:125%;letter-spacing:0px;word-spacing:0px;fill:#000000;fill-opacity:1;stroke:none;font-family:LMMonoProp10;-inkscape-font-specification:LMMonoProp10 Oblique"
                 d="m 785.70779,1106.0763 c 0.2,-1.24 -0.84,-1.24 -1.44,-1.24 l -5.4,0 c -0.6,0 -1.64,0 -1.84,1.2 -0.2,1.24 0.84,1.24 1.44,1.24 l 1.76,0 -5.44,12.4 -1.44,-13.44 c -0.08,-0.68 -0.16001,-1.4 -1.56,-1.4 -1.2,0 -1.64,0.44 -2.08,1.44 l -6,13.72 -1.36,-12.72 1.76,0 c 0.6,0 1.64,0 1.84,-1.2 0.2,-1.24 -0.84,-1.24 -1.44,-1.24 l -5.4,0 c -0.6,0 -1.64,0 -1.84,1.2 -0.2,1.24 0.84,1.24 1.44,1.24 l 1.32,0 1.4,13.52 c 0.16,1.44 0.88,1.44 1.96,1.44 0.79999,0 1.56,0 2.12,-0.76 0.2,-0.28 5.04,-11.16 5.76,-13.8 0,0 0,1.32 0.44,6.48 l 0.64,6.12 c 0.12,1.52 0.16,1.96 1.88,1.96 0.95999,0 1.72,0 2.32,-1.36 l 6,-13.6 1.32,0 c 0.6,0 1.64,0 1.84,-1.2" />
            </g>
            <path
               d="m 887.73059,1109.3751 c 0.2,-1.2 -0.8,-1.2 -1.4,-1.2 -1.52,0 -1.84,-0.16 -2.16,-0.32 l 1.44,-8.64 c 0.48,-2.92 -1.2,-6.2 -6.72,-6.2 -1.68,0 -5.68,0 -6.16,2.92 -0.2,1.2 0.56,1.84 1.52,1.84 0.68,0 1.76,-0.4 2.04,-1.84 0.08,-0.32 0.12,-0.36 0.76,-0.44 0.48,-0.04 1,-0.04 1.48,-0.04 2.92,0 4.72,1.24 4.24,4.08 -7.19999,0.12 -12,2.32 -12.64,5.96 -0.44,2.8 1.64,5.36 5.52,5.36 2.64,0 4.76,-0.8 5.92,-1.52 0.64,1.16 2.28,1.28 4,1.28 1.08,0 1.96,0 2.16,-1.24 m -5.92,-4.12 c -0.12,0.88 -0.28,1.8 -1.96,2.52 -1.52,0.64 -3.2,0.64 -3.48,0.64 -2.4,0 -3.72,-1.4 -3.48,-2.92 0.32,-1.76 3.20001,-3.4 9.48,-3.6 l -0.56,3.36"
               style="font-size:40px;font-style:oblique;font-variant:normal;font-weight:normal;font-stretch:normal;line-height:125%;letter-spacing:0px;word-spacing:0px;fill:#000000;fill-opacity:1;stroke:none;font-family:LMMonoProp10;-inkscape-font-specification:LMMonoProp10 Oblique"
               id="path4771"
               inkscape:connector-curvature="0" />
            <g
               transform="translate(0,14.142135)"
               id="g4773">
              <path
                 inkscape:connector-curvature="0"
                 id="path4775"
                 style="font-size:40px;font-style:oblique;font-variant:normal;font-weight:normal;font-stretch:normal;line-height:125%;letter-spacing:0px;word-spacing:0px;fill:#000000;fill-opacity:1;stroke:none;font-family:LMMonoProp10;-inkscape-font-specification:LMMonoProp10 Oblique"
                 d="m 855.29966,1113.4363 c 0.8,-4.8 -2.28,-8.84 -7.04,-8.84 -1.88,0 -4.12,0.6 -6.16,2.16 l 1.24,-7.48 c 0.2,-1.24 0.04,-1.64 -1.32,-1.64 l -3.32,0 c -0.64,0 -1.6,0 -1.8,1.24 -0.2,1.2 0.8,1.2 1.4,1.2 l 2.16,0 -3.4,20.36 c -0.12,0.8 -0.28,1.64 1.12,1.64 1.36,0 1.48,-0.72 1.72,-2.12 0.8,1.08 2.36,2.36 4.96,2.36 4.76,0 9.6,-3.84 10.44,-8.88 m -2.76,0 c -0.6,3.72 -4.12,6.44 -7.44,6.44 -3.36,0 -4.64,-3.4 -4.24,-5.6 l 0.44,-2.68 c 0.4,-2.52 3.52,-4.56 6.32,-4.56 3.48,0 5.48,3.04 4.92,6.4" />
              <path
                 inkscape:connector-curvature="0"
                 id="path4777"
                 style="font-size:40px;font-style:oblique;font-variant:normal;font-weight:normal;font-stretch:normal;line-height:125%;letter-spacing:0px;word-spacing:0px;fill:#000000;fill-opacity:1;stroke:none;font-family:LMMonoProp10;-inkscape-font-specification:LMMonoProp10 Oblique"
                 d="m 876.57904,1113.4363 c 0.79999,-4.88 -2.48001,-8.96 -7.48,-8.96 -5,0 -9.64001,4.08 -10.44,8.96 -0.84,4.96 2.56,8.88 7.48,8.88 4.91999,0 9.6,-3.92 10.44,-8.88 m -2.72,-0.28 c -0.6,3.64 -3.88001,6.72 -7.32,6.72 -3.48,0 -5.68,-3.08 -5.08,-6.72 0.6,-3.6 3.92,-6.24 7.24,-6.24 3.31999,0 5.76,2.64 5.16,6.24" />
              <path
                 inkscape:connector-curvature="0"
                 id="path4779"
                 style="font-size:40px;font-style:oblique;font-variant:normal;font-weight:normal;font-stretch:normal;line-height:125%;letter-spacing:0px;word-spacing:0px;fill:#000000;fill-opacity:1;stroke:none;font-family:LMMonoProp10;-inkscape-font-specification:LMMonoProp10 Oblique"
                 d="m 897.59466,1113.4363 c 0.8,-4.88 -2.48,-8.96 -7.48,-8.96 -4.99999,0 -9.64,4.08 -10.44,8.96 -0.84,4.96 2.56001,8.88 7.48,8.88 4.92,0 9.6,-3.92 10.44,-8.88 m -2.72,-0.28 c -0.6,3.64 -3.88,6.72 -7.32,6.72 -3.48,0 -5.68,-3.08 -5.08,-6.72 0.6,-3.6 3.92,-6.24 7.24,-6.24 3.32,0 5.76,2.64 5.16,6.24" />
              <path
                 inkscape:connector-curvature="0"
                 id="path4781"
                 style="font-size:40px;font-style:oblique;font-variant:normal;font-weight:normal;font-stretch:normal;line-height:125%;letter-spacing:0px;word-spacing:0px;fill:#000000;fill-opacity:1;stroke:none;font-family:LMMonoProp10;-inkscape-font-specification:LMMonoProp10 Oblique"
                 d="m 919.37029,1120.8763 c 0.2,-1.24 -0.84,-1.24 -1.44,-1.24 l -1.4,0 -4.96,-7.76 5.96,-4.6 1.56,0 c 0.6,0 1.64,0 1.84,-1.2 0.2,-1.24 -0.84,-1.24 -1.44,-1.24 l -6.56,0 c -0.64,0 -1.6,0 -1.8,1.24 -0.2,1.2 0.8,1.2 1.4,1.2 l 1.6,0 -8,6.16 2.36,-14.16 c 0.2,-1.24 0.04,-1.64 -1.32,-1.64 l -2.8,0 c -0.64,0 -1.6,0 -1.8,1.24 -0.2,1.2 0.8,1.2 1.4,1.2 l 2.16,0 -3.28,19.56 -2.16,0 c -0.64,0 -1.6,0 -1.8,1.24 -0.2,1.2 0.8,1.2 1.4,1.2 l 6.56,0 c 0.6,0 1.6,0 1.8,-1.2 0.2,-1.24 -0.76,-1.24 -1.4,-1.24 l -2.16,0 0.56,-3.2 3.96,-3.08 4.04,6.28 -0.76,0 c -0.6,0 -1.6,0 -1.8,1.2 -0.2,1.24 0.76,1.24 1.4,1.24 l 5.04,0 c 0.6,0 1.64,0 1.84,-1.2" />
            </g>
          </g>
          <path
             style="fill:none;stroke:#000000;stroke-width:1px;stroke-linecap:butt;stroke-linejoin:miter;stroke-opacity:1"
             d="m 907.11699,804.88841 100.00511,0"
             id="path4783"
             inkscape:connector-curvature="0" />
          <path
             inkscape:connector-curvature="0"
             id="path4785"
             d="m 907.11699,893.78183 100.00511,0"
             style="fill:none;stroke:#000000;stroke-width:1px;stroke-linecap:butt;stroke-linejoin:miter;stroke-opacity:1" />
        </g>
      </g>
      <g
         id="g4817">
        <g
           id="g4408"
           transform="translate(-27.142857,-4.2857143)">
          <path
             sodipodi:nodetypes="ccccc"
             inkscape:connector-curvature="0"
             id="rect4378"
             d="m 85.03043,700.36536 190.74626,-14.14222 0,279.00003 -190.74626,4.8562 z"
             style="fill:#ff5555;fill-opacity:1;stroke:none" />
          <path
             style="fill:#ffccaa;fill-opacity:1;stroke:none"
             d="m 87.991097,702.77703 185.985643,-11.37532 41.96428,24.98454 -198.57493,17.44312 z"
             id="path4406"
             inkscape:connector-curvature="0"
             sodipodi:nodetypes="ccccc" />
          <path
             sodipodi:nodetypes="ccccc"
             inkscape:connector-curvature="0"
             id="rect3029-6"
             d="m 102.00005,714.30436 216,0 0,279.00001 -215.99962,0 z"
             style="fill:#66b0e9;fill-opacity:1;stroke:none" />
          <path
             sodipodi:nodetypes="ccccc"
             inkscape:connector-curvature="0"
             id="rect4380"
             d="m 85.03051,700.36536 16.96992,13.939 0,279.00001 -16.97,-23.225 z"
             style="fill:#de8787;fill-opacity:1;stroke:none" />
        </g>
        <g
           id="g4787"
           transform="translate(-774.26235,0.1835307)">
          <g
             transform="translate(78.205001,-252.55996)"
             id="g4789">
            <g
               id="g4791"
               transform="translate(137.07919,-30.304576)">
              <path
                 d="m 726.00466,1098.8763 c 0.2,-1.24 -0.76,-1.24 -1.4,-1.24 l -6.16,0 c -0.64,0 -1.64,0 -1.84,1.24 -0.2,1.2 0.84,1.2 1.44,1.2 l 1.56,0 -11.12,19.96 -4.52,-19.96 1.56,0 c 0.6,0 1.64,0 1.84,-1.2 0.2,-1.24 -0.8,-1.24 -1.44,-1.24 l -6.16,0 c -0.6,0 -1.6,0 -1.8,1.2 -0.2,1.24 0.76,1.24 1.4,1.24 l 1.64,0 4.72,20.88 c 0.24,1 0.44,1.44 1.96,1.44 l 0.76,0 c 0.96,0 1.68,-0.04 2.44,-1.4 l 11.68,-20.92 1.64,0 c 0.6,0 1.6,0 1.8,-1.2"
                 style="font-size:40px;font-style:oblique;font-variant:normal;font-weight:normal;font-stretch:normal;line-height:125%;letter-spacing:0px;word-spacing:0px;fill:#000000;fill-opacity:1;stroke:none;font-family:LMMonoProp10;-inkscape-font-specification:LMMonoProp10 Oblique"
                 id="path4793"
                 inkscape:connector-curvature="0" />
              <path
                 d="m 734.07716,1120.8763 c 0.2,-1.24 -0.8,-1.24 -1.44,-1.24 l -1.76,0 2.2,-13.16 c 0.2,-1.24 0.04,-1.64 -1.32,-1.64 l -3.12,0 c -0.6,0 -1.64,0 -1.84,1.2 -0.2,1.24 0.84,1.24 1.44,1.24 l 1.96,0 -2.08,12.36 -2.16,0 c -0.64,0 -1.6,0 -1.8,1.24 -0.2,1.2 0.8,1.2 1.4,1.2 l 6.72,0 c 0.6,0 1.6,0 1.8,-1.2 m 0.68,-20.56 c 0.16,-1.08 -0.6,-2 -1.68,-2 -1.24,0 -2.2,1 -2.36,2 -0.2,1.08 0.56,2 1.64,2 1.24,0 2.24,-1 2.4,-2"
                 style="font-size:40px;font-style:oblique;font-variant:normal;font-weight:normal;font-stretch:normal;line-height:125%;letter-spacing:0px;word-spacing:0px;fill:#000000;fill-opacity:1;stroke:none;font-family:LMMonoProp10;-inkscape-font-specification:LMMonoProp10 Oblique"
                 id="path4795"
                 inkscape:connector-curvature="0" />
              <path
                 d="m 753.19591,1117.7163 c 0.2,-1.12 -0.96,-1.12 -1.2,-1.12 -0.64,0 -1.04,0.08 -1.48,0.88 -1.12,1.92 -3.12,2.4 -4.4,2.4 -3,0 -5.48,-2.16 -5.48,-5.44 l 11.52,0 c 0.84,0 1.6,0 1.84,-1.48 0.8,-4.76 -1.24,-8.48 -6.16,-8.48 -4.71999,0 -9.08,4.08 -9.88,8.88 -0.8,4.96 2.48001,8.96 7.52,8.96 5.08,0 7.56,-3.56 7.72,-4.6 m -1.88,-5.68 -10.24,0 c 1.04,-3 3.72,-5.12 6.36,-5.12 2,0 4.24,1 3.88,5.12"
                 style="font-size:40px;font-style:oblique;font-variant:normal;font-weight:normal;font-stretch:normal;line-height:125%;letter-spacing:0px;word-spacing:0px;fill:#000000;fill-opacity:1;stroke:none;font-family:LMMonoProp10;-inkscape-font-specification:LMMonoProp10 Oblique"
                 id="path4797"
                 inkscape:connector-curvature="0" />
              <path
                 d="m 785.70779,1106.0763 c 0.2,-1.24 -0.84,-1.24 -1.44,-1.24 l -5.4,0 c -0.6,0 -1.64,0 -1.84,1.2 -0.2,1.24 0.84,1.24 1.44,1.24 l 1.76,0 -5.44,12.4 -1.44,-13.44 c -0.08,-0.68 -0.16001,-1.4 -1.56,-1.4 -1.2,0 -1.64,0.44 -2.08,1.44 l -6,13.72 -1.36,-12.72 1.76,0 c 0.6,0 1.64,0 1.84,-1.2 0.2,-1.24 -0.84,-1.24 -1.44,-1.24 l -5.4,0 c -0.6,0 -1.64,0 -1.84,1.2 -0.2,1.24 0.84,1.24 1.44,1.24 l 1.32,0 1.4,13.52 c 0.16,1.44 0.88,1.44 1.96,1.44 0.79999,0 1.56,0 2.12,-0.76 0.2,-0.28 5.04,-11.16 5.76,-13.8 0,0 0,1.32 0.44,6.48 l 0.64,6.12 c 0.12,1.52 0.16,1.96 1.88,1.96 0.95999,0 1.72,0 2.32,-1.36 l 6,-13.6 1.32,0 c 0.6,0 1.64,0 1.84,-1.2"
                 style="font-size:40px;font-style:oblique;font-variant:normal;font-weight:normal;font-stretch:normal;line-height:125%;letter-spacing:0px;word-spacing:0px;fill:#000000;fill-opacity:1;stroke:none;font-family:LMMonoProp10;-inkscape-font-specification:LMMonoProp10 Oblique"
                 id="path4799"
                 inkscape:connector-curvature="0" />
            </g>
            <path
               inkscape:connector-curvature="0"
               id="path4801"
               style="font-size:40px;font-style:oblique;font-variant:normal;font-weight:normal;font-stretch:normal;line-height:125%;letter-spacing:0px;word-spacing:0px;fill:#000000;fill-opacity:1;stroke:none;font-family:LMMonoProp10;-inkscape-font-specification:LMMonoProp10 Oblique"
               d="m 887.73059,1109.3751 c 0.2,-1.2 -0.8,-1.2 -1.4,-1.2 -1.52,0 -1.84,-0.16 -2.16,-0.32 l 1.44,-8.64 c 0.48,-2.92 -1.2,-6.2 -6.72,-6.2 -1.68,0 -5.68,0 -6.16,2.92 -0.2,1.2 0.56,1.84 1.52,1.84 0.68,0 1.76,-0.4 2.04,-1.84 0.08,-0.32 0.12,-0.36 0.76,-0.44 0.48,-0.04 1,-0.04 1.48,-0.04 2.92,0 4.72,1.24 4.24,4.08 -7.19999,0.12 -12,2.32 -12.64,5.96 -0.44,2.8 1.64,5.36 5.52,5.36 2.64,0 4.76,-0.8 5.92,-1.52 0.64,1.16 2.28,1.28 4,1.28 1.08,0 1.96,0 2.16,-1.24 m -5.92,-4.12 c -0.12,0.88 -0.28,1.8 -1.96,2.52 -1.52,0.64 -3.2,0.64 -3.48,0.64 -2.4,0 -3.72,-1.4 -3.48,-2.92 0.32,-1.76 3.20001,-3.4 9.48,-3.6 l -0.56,3.36" />
            <g
               id="g4803"
               transform="translate(0,14.142135)">
              <path
                 d="m 855.29966,1113.4363 c 0.8,-4.8 -2.28,-8.84 -7.04,-8.84 -1.88,0 -4.12,0.6 -6.16,2.16 l 1.24,-7.48 c 0.2,-1.24 0.04,-1.64 -1.32,-1.64 l -3.32,0 c -0.64,0 -1.6,0 -1.8,1.24 -0.2,1.2 0.8,1.2 1.4,1.2 l 2.16,0 -3.4,20.36 c -0.12,0.8 -0.28,1.64 1.12,1.64 1.36,0 1.48,-0.72 1.72,-2.12 0.8,1.08 2.36,2.36 4.96,2.36 4.76,0 9.6,-3.84 10.44,-8.88 m -2.76,0 c -0.6,3.72 -4.12,6.44 -7.44,6.44 -3.36,0 -4.64,-3.4 -4.24,-5.6 l 0.44,-2.68 c 0.4,-2.52 3.52,-4.56 6.32,-4.56 3.48,0 5.48,3.04 4.92,6.4"
                 style="font-size:40px;font-style:oblique;font-variant:normal;font-weight:normal;font-stretch:normal;line-height:125%;letter-spacing:0px;word-spacing:0px;fill:#000000;fill-opacity:1;stroke:none;font-family:LMMonoProp10;-inkscape-font-specification:LMMonoProp10 Oblique"
                 id="path4805"
                 inkscape:connector-curvature="0" />
              <path
                 d="m 876.57904,1113.4363 c 0.79999,-4.88 -2.48001,-8.96 -7.48,-8.96 -5,0 -9.64001,4.08 -10.44,8.96 -0.84,4.96 2.56,8.88 7.48,8.88 4.91999,0 9.6,-3.92 10.44,-8.88 m -2.72,-0.28 c -0.6,3.64 -3.88001,6.72 -7.32,6.72 -3.48,0 -5.68,-3.08 -5.08,-6.72 0.6,-3.6 3.92,-6.24 7.24,-6.24 3.31999,0 5.76,2.64 5.16,6.24"
                 style="font-size:40px;font-style:oblique;font-variant:normal;font-weight:normal;font-stretch:normal;line-height:125%;letter-spacing:0px;word-spacing:0px;fill:#000000;fill-opacity:1;stroke:none;font-family:LMMonoProp10;-inkscape-font-specification:LMMonoProp10 Oblique"
                 id="path4807"
                 inkscape:connector-curvature="0" />
              <path
                 d="m 897.59466,1113.4363 c 0.8,-4.88 -2.48,-8.96 -7.48,-8.96 -4.99999,0 -9.64,4.08 -10.44,8.96 -0.84,4.96 2.56001,8.88 7.48,8.88 4.92,0 9.6,-3.92 10.44,-8.88 m -2.72,-0.28 c -0.6,3.64 -3.88,6.72 -7.32,6.72 -3.48,0 -5.68,-3.08 -5.08,-6.72 0.6,-3.6 3.92,-6.24 7.24,-6.24 3.32,0 5.76,2.64 5.16,6.24"
                 style="font-size:40px;font-style:oblique;font-variant:normal;font-weight:normal;font-stretch:normal;line-height:125%;letter-spacing:0px;word-spacing:0px;fill:#000000;fill-opacity:1;stroke:none;font-family:LMMonoProp10;-inkscape-font-specification:LMMonoProp10 Oblique"
                 id="path4809"
                 inkscape:connector-curvature="0" />
              <path
                 d="m 919.37029,1120.8763 c 0.2,-1.24 -0.84,-1.24 -1.44,-1.24 l -1.4,0 -4.96,-7.76 5.96,-4.6 1.56,0 c 0.6,0 1.64,0 1.84,-1.2 0.2,-1.24 -0.84,-1.24 -1.44,-1.24 l -6.56,0 c -0.64,0 -1.6,0 -1.8,1.24 -0.2,1.2 0.8,1.2 1.4,1.2 l 1.6,0 -8,6.16 2.36,-14.16 c 0.2,-1.24 0.04,-1.64 -1.32,-1.64 l -2.8,0 c -0.64,0 -1.6,0 -1.8,1.24 -0.2,1.2 0.8,1.2 1.4,1.2 l 2.16,0 -3.28,19.56 -2.16,0 c -0.64,0 -1.6,0 -1.8,1.24 -0.2,1.2 0.8,1.2 1.4,1.2 l 6.56,0 c 0.6,0 1.6,0 1.8,-1.2 0.2,-1.24 -0.76,-1.24 -1.4,-1.24 l -2.16,0 0.56,-3.2 3.96,-3.08 4.04,6.28 -0.76,0 c -0.6,0 -1.6,0 -1.8,1.2 -0.2,1.24 0.76,1.24 1.4,1.24 l 5.04,0 c 0.6,0 1.64,0 1.84,-1.2"
                 style="font-size:40px;font-style:oblique;font-variant:normal;font-weight:normal;font-stretch:normal;line-height:125%;letter-spacing:0px;word-spacing:0px;fill:#000000;fill-opacity:1;stroke:none;font-family:LMMonoProp10;-inkscape-font-specification:LMMonoProp10 Oblique"
                 id="path4811"
                 inkscape:connector-curvature="0" />
            </g>
          </g>
          <path
             inkscape:connector-curvature="0"
             id="path4813"
             d="m 907.11699,804.88841 100.00511,0"
             style="fill:none;stroke:#000000;stroke-width:1px;stroke-linecap:butt;stroke-linejoin:miter;stroke-opacity:1" />
          <path
             style="fill:none;stroke:#000000;stroke-width:1px;stroke-linecap:butt;stroke-linejoin:miter;stroke-opacity:1"
             d="m 907.11699,893.78183 100.00511,0"
             id="path4815"
             inkscape:connector-curvature="0" />
        </g>
      </g>
      <g
         id="g5285">
        <path
           sodipodi:nodetypes="ccccc"
           inkscape:connector-curvature="0"
           id="path4901"
           d="m 756.34047,679.24934 557.67633,0 0,340.52446 -557.67533,0 z"
           style="opacity:0.1;fill:#000000;fill-opacity:1;stroke:none" />
        <g
           id="g5247">
          <path
             style="fill:#66b0e9;fill-opacity:1;stroke:none"
             d="m 792.91975,710.01865 215.99995,0 0,279.00001 -215.99957,0 z"
             id="path4618"
             inkscape:connector-curvature="0"
             sodipodi:nodetypes="ccccc" />
          <g
             transform="translate(-56.199811,0.183535)"
             id="g4741">
            <g
               id="g4693"
               transform="translate(78.205001,-252.55996)">
              <g
                 transform="translate(137.07919,-30.304576)"
                 id="g4681">
                <path
                   inkscape:connector-curvature="0"
                   id="path4654"
                   style="font-size:40px;font-style:oblique;font-variant:normal;font-weight:normal;font-stretch:normal;line-height:125%;letter-spacing:0px;word-spacing:0px;fill:#000000;fill-opacity:1;stroke:none;font-family:LMMonoProp10;-inkscape-font-specification:LMMonoProp10 Oblique"
                   d="m 726.00466,1098.8763 c 0.2,-1.24 -0.76,-1.24 -1.4,-1.24 l -6.16,0 c -0.64,0 -1.64,0 -1.84,1.24 -0.2,1.2 0.84,1.2 1.44,1.2 l 1.56,0 -11.12,19.96 -4.52,-19.96 1.56,0 c 0.6,0 1.64,0 1.84,-1.2 0.2,-1.24 -0.8,-1.24 -1.44,-1.24 l -6.16,0 c -0.6,0 -1.6,0 -1.8,1.2 -0.2,1.24 0.76,1.24 1.4,1.24 l 1.64,0 4.72,20.88 c 0.24,1 0.44,1.44 1.96,1.44 l 0.76,0 c 0.96,0 1.68,-0.04 2.44,-1.4 l 11.68,-20.92 1.64,0 c 0.6,0 1.6,0 1.8,-1.2" />
                <path
                   inkscape:connector-curvature="0"
                   id="path4656"
                   style="font-size:40px;font-style:oblique;font-variant:normal;font-weight:normal;font-stretch:normal;line-height:125%;letter-spacing:0px;word-spacing:0px;fill:#000000;fill-opacity:1;stroke:none;font-family:LMMonoProp10;-inkscape-font-specification:LMMonoProp10 Oblique"
                   d="m 734.07716,1120.8763 c 0.2,-1.24 -0.8,-1.24 -1.44,-1.24 l -1.76,0 2.2,-13.16 c 0.2,-1.24 0.04,-1.64 -1.32,-1.64 l -3.12,0 c -0.6,0 -1.64,0 -1.84,1.2 -0.2,1.24 0.84,1.24 1.44,1.24 l 1.96,0 -2.08,12.36 -2.16,0 c -0.64,0 -1.6,0 -1.8,1.24 -0.2,1.2 0.8,1.2 1.4,1.2 l 6.72,0 c 0.6,0 1.6,0 1.8,-1.2 m 0.68,-20.56 c 0.16,-1.08 -0.6,-2 -1.68,-2 -1.24,0 -2.2,1 -2.36,2 -0.2,1.08 0.56,2 1.64,2 1.24,0 2.24,-1 2.4,-2" />
                <path
                   inkscape:connector-curvature="0"
                   id="path4658"
                   style="font-size:40px;font-style:oblique;font-variant:normal;font-weight:normal;font-stretch:normal;line-height:125%;letter-spacing:0px;word-spacing:0px;fill:#000000;fill-opacity:1;stroke:none;font-family:LMMonoProp10;-inkscape-font-specification:LMMonoProp10 Oblique"
                   d="m 753.19591,1117.7163 c 0.2,-1.12 -0.96,-1.12 -1.2,-1.12 -0.64,0 -1.04,0.08 -1.48,0.88 -1.12,1.92 -3.12,2.4 -4.4,2.4 -3,0 -5.48,-2.16 -5.48,-5.44 l 11.52,0 c 0.84,0 1.6,0 1.84,-1.48 0.8,-4.76 -1.24,-8.48 -6.16,-8.48 -4.71999,0 -9.08,4.08 -9.88,8.88 -0.8,4.96 2.48001,8.96 7.52,8.96 5.08,0 7.56,-3.56 7.72,-4.6 m -1.88,-5.68 -10.24,0 c 1.04,-3 3.72,-5.12 6.36,-5.12 2,0 4.24,1 3.88,5.12" />
                <path
                   inkscape:connector-curvature="0"
                   id="path4660"
                   style="font-size:40px;font-style:oblique;font-variant:normal;font-weight:normal;font-stretch:normal;line-height:125%;letter-spacing:0px;word-spacing:0px;fill:#000000;fill-opacity:1;stroke:none;font-family:LMMonoProp10;-inkscape-font-specification:LMMonoProp10 Oblique"
                   d="m 785.70779,1106.0763 c 0.2,-1.24 -0.84,-1.24 -1.44,-1.24 l -5.4,0 c -0.6,0 -1.64,0 -1.84,1.2 -0.2,1.24 0.84,1.24 1.44,1.24 l 1.76,0 -5.44,12.4 -1.44,-13.44 c -0.08,-0.68 -0.16001,-1.4 -1.56,-1.4 -1.2,0 -1.64,0.44 -2.08,1.44 l -6,13.72 -1.36,-12.72 1.76,0 c 0.6,0 1.64,0 1.84,-1.2 0.2,-1.24 -0.84,-1.24 -1.44,-1.24 l -5.4,0 c -0.6,0 -1.64,0 -1.84,1.2 -0.2,1.24 0.84,1.24 1.44,1.24 l 1.32,0 1.4,13.52 c 0.16,1.44 0.88,1.44 1.96,1.44 0.79999,0 1.56,0 2.12,-0.76 0.2,-0.28 5.04,-11.16 5.76,-13.8 0,0 0,1.32 0.44,6.48 l 0.64,6.12 c 0.12,1.52 0.16,1.96 1.88,1.96 0.95999,0 1.72,0 2.32,-1.36 l 6,-13.6 1.32,0 c 0.6,0 1.64,0 1.84,-1.2" />
              </g>
              <path
                 d="m 887.73059,1109.3751 c 0.2,-1.2 -0.8,-1.2 -1.4,-1.2 -1.52,0 -1.84,-0.16 -2.16,-0.32 l 1.44,-8.64 c 0.48,-2.92 -1.2,-6.2 -6.72,-6.2 -1.68,0 -5.68,0 -6.16,2.92 -0.2,1.2 0.56,1.84 1.52,1.84 0.68,0 1.76,-0.4 2.04,-1.84 0.08,-0.32 0.12,-0.36 0.76,-0.44 0.48,-0.04 1,-0.04 1.48,-0.04 2.92,0 4.72,1.24 4.24,4.08 -7.19999,0.12 -12,2.32 -12.64,5.96 -0.44,2.8 1.64,5.36 5.52,5.36 2.64,0 4.76,-0.8 5.92,-1.52 0.64,1.16 2.28,1.28 4,1.28 1.08,0 1.96,0 2.16,-1.24 m -5.92,-4.12 c -0.12,0.88 -0.28,1.8 -1.96,2.52 -1.52,0.64 -3.2,0.64 -3.48,0.64 -2.4,0 -3.72,-1.4 -3.48,-2.92 0.32,-1.76 3.20001,-3.4 9.48,-3.6 l -0.56,3.36"
                 style="font-size:40px;font-style:oblique;font-variant:normal;font-weight:normal;font-stretch:normal;line-height:125%;letter-spacing:0px;word-spacing:0px;fill:#000000;fill-opacity:1;stroke:none;font-family:LMMonoProp10;-inkscape-font-specification:LMMonoProp10 Oblique"
                 id="path4662"
                 inkscape:connector-curvature="0" />
              <g
                 transform="translate(0,14.142135)"
                 id="g4687">
                <path
                   inkscape:connector-curvature="0"
                   id="path4664"
                   style="font-size:40px;font-style:oblique;font-variant:normal;font-weight:normal;font-stretch:normal;line-height:125%;letter-spacing:0px;word-spacing:0px;fill:#000000;fill-opacity:1;stroke:none;font-family:LMMonoProp10;-inkscape-font-specification:LMMonoProp10 Oblique"
                   d="m 855.29966,1113.4363 c 0.8,-4.8 -2.28,-8.84 -7.04,-8.84 -1.88,0 -4.12,0.6 -6.16,2.16 l 1.24,-7.48 c 0.2,-1.24 0.04,-1.64 -1.32,-1.64 l -3.32,0 c -0.64,0 -1.6,0 -1.8,1.24 -0.2,1.2 0.8,1.2 1.4,1.2 l 2.16,0 -3.4,20.36 c -0.12,0.8 -0.28,1.64 1.12,1.64 1.36,0 1.48,-0.72 1.72,-2.12 0.8,1.08 2.36,2.36 4.96,2.36 4.76,0 9.6,-3.84 10.44,-8.88 m -2.76,0 c -0.6,3.72 -4.12,6.44 -7.44,6.44 -3.36,0 -4.64,-3.4 -4.24,-5.6 l 0.44,-2.68 c 0.4,-2.52 3.52,-4.56 6.32,-4.56 3.48,0 5.48,3.04 4.92,6.4" />
                <path
                   inkscape:connector-curvature="0"
                   id="path4666"
                   style="font-size:40px;font-style:oblique;font-variant:normal;font-weight:normal;font-stretch:normal;line-height:125%;letter-spacing:0px;word-spacing:0px;fill:#000000;fill-opacity:1;stroke:none;font-family:LMMonoProp10;-inkscape-font-specification:LMMonoProp10 Oblique"
                   d="m 876.57904,1113.4363 c 0.79999,-4.88 -2.48001,-8.96 -7.48,-8.96 -5,0 -9.64001,4.08 -10.44,8.96 -0.84,4.96 2.56,8.88 7.48,8.88 4.91999,0 9.6,-3.92 10.44,-8.88 m -2.72,-0.28 c -0.6,3.64 -3.88001,6.72 -7.32,6.72 -3.48,0 -5.68,-3.08 -5.08,-6.72 0.6,-3.6 3.92,-6.24 7.24,-6.24 3.31999,0 5.76,2.64 5.16,6.24" />
                <path
                   inkscape:connector-curvature="0"
                   id="path4668"
                   style="font-size:40px;font-style:oblique;font-variant:normal;font-weight:normal;font-stretch:normal;line-height:125%;letter-spacing:0px;word-spacing:0px;fill:#000000;fill-opacity:1;stroke:none;font-family:LMMonoProp10;-inkscape-font-specification:LMMonoProp10 Oblique"
                   d="m 897.59466,1113.4363 c 0.8,-4.88 -2.48,-8.96 -7.48,-8.96 -4.99999,0 -9.64,4.08 -10.44,8.96 -0.84,4.96 2.56001,8.88 7.48,8.88 4.92,0 9.6,-3.92 10.44,-8.88 m -2.72,-0.28 c -0.6,3.64 -3.88,6.72 -7.32,6.72 -3.48,0 -5.68,-3.08 -5.08,-6.72 0.6,-3.6 3.92,-6.24 7.24,-6.24 3.32,0 5.76,2.64 5.16,6.24" />
                <path
                   inkscape:connector-curvature="0"
                   id="path4670"
                   style="font-size:40px;font-style:oblique;font-variant:normal;font-weight:normal;font-stretch:normal;line-height:125%;letter-spacing:0px;word-spacing:0px;fill:#000000;fill-opacity:1;stroke:none;font-family:LMMonoProp10;-inkscape-font-specification:LMMonoProp10 Oblique"
                   d="m 919.37029,1120.8763 c 0.2,-1.24 -0.84,-1.24 -1.44,-1.24 l -1.4,0 -4.96,-7.76 5.96,-4.6 1.56,0 c 0.6,0 1.64,0 1.84,-1.2 0.2,-1.24 -0.84,-1.24 -1.44,-1.24 l -6.56,0 c -0.64,0 -1.6,0 -1.8,1.24 -0.2,1.2 0.8,1.2 1.4,1.2 l 1.6,0 -8,6.16 2.36,-14.16 c 0.2,-1.24 0.04,-1.64 -1.32,-1.64 l -2.8,0 c -0.64,0 -1.6,0 -1.8,1.24 -0.2,1.2 0.8,1.2 1.4,1.2 l 2.16,0 -3.28,19.56 -2.16,0 c -0.64,0 -1.6,0 -1.8,1.24 -0.2,1.2 0.8,1.2 1.4,1.2 l 6.56,0 c 0.6,0 1.6,0 1.8,-1.2 0.2,-1.24 -0.76,-1.24 -1.4,-1.24 l -2.16,0 0.56,-3.2 3.96,-3.08 4.04,6.28 -0.76,0 c -0.6,0 -1.6,0 -1.8,1.2 -0.2,1.24 0.76,1.24 1.4,1.24 l 5.04,0 c 0.6,0 1.64,0 1.84,-1.2" />
              </g>
            </g>
            <path
               style="fill:none;stroke:#000000;stroke-width:1px;stroke-linecap:butt;stroke-linejoin:miter;stroke-opacity:1"
               d="m 907.11699,804.88841 100.00511,0"
               id="path4710"
               inkscape:connector-curvature="0" />
            <path
               inkscape:connector-curvature="0"
               id="path4712"
               d="m 907.11699,893.78183 100.00511,0"
               style="fill:none;stroke:#000000;stroke-width:1px;stroke-linecap:butt;stroke-linejoin:miter;stroke-opacity:1" />
          </g>
          <path
             id="path4917"
             d="m 1008.9062,710.00451 0,279 268.5313,0 0,-279 -268.5313,0 z"
             style="fill:#ffffff;fill-opacity:1;stroke:none"
             inkscape:connector-curvature="0" />
          <g
             transform="translate(-2.3848014,-1.8732671)"
             id="g5172">
            <g
               id="g5068">
              <text
                 xml:space="preserve"
                 style="font-size:16px;font-style:normal;font-variant:normal;font-weight:normal;font-stretch:normal;line-height:125%;letter-spacing:0px;word-spacing:0px;fill:#66b0e9;fill-opacity:1;stroke:none;font-family:Open Sans;-inkscape-font-specification:Open Sans"
                 x="1196.0225"
                 y="756.1582"
                 id="text4897"
                 sodipodi:linespacing="125%"><tspan
                   sodipodi:role="line"
                   id="tspan4899"
                   x="1196.0225"
                   y="756.1582"
                   style="font-size:16px;font-style:normal;font-variant:normal;font-weight:normal;font-stretch:normal;fill:#66b0e9;fill-opacity:1;font-family:Open Sans;-inkscape-font-specification:Open Sans">USD20,00</tspan></text>
              <text
                 sodipodi:linespacing="125%"
                 id="text4863"
                 y="740.37695"
                 x="1023.0635"
                 style="font-size:20px;font-style:normal;font-variant:normal;font-weight:normal;font-stretch:normal;line-height:125%;letter-spacing:0px;word-spacing:0px;fill:#000000;fill-opacity:1;stroke:none;font-family:Open Sans;-inkscape-font-specification:Open Sans"
                 xml:space="preserve"><tspan
                   style="font-style:normal;font-variant:normal;font-weight:normal;font-stretch:normal;font-family:Open Sans;-inkscape-font-specification:Open Sans"
                   y="740.37695"
                   x="1023.0635"
                   id="tspan4865"
                   sodipodi:role="line">Title book Full</tspan></text>
              <text
                 xml:space="preserve"
                 style="font-size:13px;font-style:normal;font-variant:normal;font-weight:normal;font-stretch:normal;line-height:125%;letter-spacing:0px;word-spacing:0px;fill:#333333;fill-opacity:1;stroke:none;font-family:Open Sans;-inkscape-font-specification:Open Sans"
                 x="1023.2393"
                 y="754.50342"
                 id="text4867"
                 sodipodi:linespacing="125%"><tspan
                   sodipodi:role="line"
                   id="tspan4869"
                   x="1023.2393"
                   y="754.50342"
                   style="font-size:13px;font-style:normal;font-variant:normal;font-weight:normal;font-stretch:normal;fill:#333333;font-family:Open Sans;-inkscape-font-specification:Open Sans">Author fullname</tspan></text>
              <flowRoot
                 transform="translate(334.60842,-112.91683)"
                 style="font-size:12px;font-style:normal;font-variant:normal;font-weight:normal;font-stretch:normal;line-height:125%;letter-spacing:0px;word-spacing:0px;fill:#000000;fill-opacity:1;stroke:none;font-family:Open Sans;-inkscape-font-specification:Open Sans"
                 id="flowRoot4871"
                 xml:space="preserve"><flowRegion
                   id="flowRegion4873"><rect
                     style="font-size:12px;font-style:normal;font-variant:normal;font-weight:normal;font-stretch:normal;font-family:Open Sans;-inkscape-font-specification:Open Sans"
                     y="885.94714"
                     x="689.28571"
                     height="162.89305"
                     width="247.13666"
                     id="rect4875" /></flowRegion><flowPara
                   id="flowPara4877">Donec quis elit condimentum, placerat velit porta, convallis purus. Phasellus nisl nisi, pharetra ac nisl ac, malesuada gravida eros. Nulla laoreet consectetur sodales. Vivamus in odio sagittis, volutpat lacus sit amet, aliquet nisi. Donec malesuada dolor metus, in ultrices velit congue non. Mauris nisi justo, eleifend vitae ligula pretium, hendrerit venenatis nulla. Fusce libero dui, hendrerit sit a...</flowPara></flowRoot>              <text
                 sodipodi:linespacing="125%"
                 id="text4922"
                 y="977.48602"
                 x="1021.9404"
                 style="font-size:20px;font-style:normal;font-variant:normal;font-weight:normal;font-stretch:normal;line-height:125%;letter-spacing:0px;word-spacing:0px;fill:#000000;fill-opacity:1;stroke:none;font-family:Open Sans;-inkscape-font-specification:Open Sans"
                 xml:space="preserve"><tspan
                   y="977.48602"
                   x="1021.9404"
                   id="tspan4924"
                   sodipodi:role="line"></tspan></text>
            </g>
            <g
               id="g5108"
               transform="translate(2.7089068,-3.7212524)">
              <rect
                 transform="scale(1,-1)"
                 style="fill:#459fe4;fill-opacity:1;stroke:none"
                 id="rect5090"
                 width="73.236061"
                 height="3.2222142"
                 x="1191.9291"
                 y="-981.29517" />
              <rect
                 y="948.83978"
                 x="1191.9291"
                 height="30.304577"
                 width="73.236061"
                 id="rect4945"
                 style="fill:#66b0e9;fill-opacity:1;stroke:none" />
              <text
                 sodipodi:linespacing="125%"
                 id="text4941"
                 y="968.81732"
                 x="1211.5183"
                 style="font-size:18px;font-style:normal;font-variant:normal;font-weight:normal;font-stretch:normal;line-height:125%;letter-spacing:0px;word-spacing:0px;fill:#ffffff;fill-opacity:1;stroke:none;font-family:Open Sans;-inkscape-font-specification:Open Sans"
                 xml:space="preserve"><tspan
                   y="968.81732"
                   x="1211.5183"
                   id="tspan4943"
                   sodipodi:role="line">Buy</tspan></text>
            </g>
          </g>
        </g>
      </g>
      <g
         transform="translate(-958.57143,-8.5714285)"
         id="g5207">
        <g
           transform="translate(-185.40249,68.437835)"
           id="g5209">
          <rect
             transform="scale(1,-1)"
             style="fill:#459fe4;fill-opacity:1;stroke:none"
             id="rect5211"
             width="73.236061"
             height="3.2222142"
             x="1191.9291"
             y="-981.29517" />
          <rect
             y="948.83978"
             x="1191.9291"
             height="30.304577"
             width="73.236061"
             id="rect5213"
             style="fill:#66b0e9;fill-opacity:1;stroke:none" />
          <text
             sodipodi:linespacing="125%"
             id="text5215"
             y="968.81732"
             x="1211.5183"
             style="font-size:18px;font-style:normal;font-variant:normal;font-weight:normal;font-stretch:normal;line-height:125%;letter-spacing:0px;word-spacing:0px;fill:#ffffff;fill-opacity:1;stroke:none;font-family:Open Sans;-inkscape-font-specification:Open Sans"
             xml:space="preserve"><tspan
               y="968.81732"
               x="1211.5183"
               id="tspan5217"
               sodipodi:role="line">Buy</tspan></text>
        </g>
        <g
           id="g5219">
          <rect
             style="fill:#459fe4;fill-opacity:1;stroke:none"
             id="rect5221"
             width="73.236061"
             height="30.304577"
             x="1165.1705"
             y="1017.2776" />
          <text
             xml:space="preserve"
             style="font-size:18px;font-style:normal;font-variant:normal;font-weight:normal;font-stretch:normal;line-height:125%;letter-spacing:0px;word-spacing:0px;fill:#ffffff;fill-opacity:1;stroke:none;font-family:Open Sans;-inkscape-font-specification:Open Sans"
             x="1184.7598"
             y="1037.2551"
             id="text5223"
             sodipodi:linespacing="125%"><tspan
               sodipodi:role="line"
               id="tspan5225"
               x="1184.7598"
               y="1037.2551">Buy</tspan></text>
        </g>
        <g
           id="g5227">
          <rect
             style="fill:#66b0e9;fill-opacity:1;stroke:none"
             id="rect5229"
             width="73.236061"
             height="30.304577"
             x="1086.5266"
             y="1017.2776" />
          <text
             xml:space="preserve"
             style="font-size:18px;font-style:normal;font-variant:normal;font-weight:normal;font-stretch:normal;line-height:125%;letter-spacing:0px;word-spacing:0px;fill:#ffffff;fill-opacity:1;stroke:none;font-family:Open Sans;-inkscape-font-specification:Open Sans"
             x="1106.1158"
             y="1037.2551"
             id="text5231"
             sodipodi:linespacing="125%"><tspan
               sodipodi:role="line"
               id="tspan5233"
               x="1106.1158"
               y="1037.2551">Buy</tspan></text>
        </g>
      </g>
    </g>
  </g>
</svg>
